solid OpenSCAD_Model
  facet normal 0 0 -1
    outer loop
      vertex -2.5 0 0
      vertex -2.48029 0.313333 0
      vertex -2.48029 -0.313333 0
    endloop
  endfacet
  facet normal 0 0 -1
    outer loop
      vertex -2.48029 -0.313333 0
      vertex -2.48029 0.313333 0
      vertex -2.42146 0.621725 0
    endloop
  endfacet
  facet normal 0 0 -1
    outer loop
      vertex -2.48029 -0.313333 0
      vertex -2.42146 0.621725 0
      vertex -2.32444 0.920311 0
    endloop
  endfacet
  facet normal 0 0 -1
    outer loop
      vertex -2.48029 -0.313333 0
      vertex -2.32444 0.920311 0
      vertex -2.19077 1.20438 0
    endloop
  endfacet
  facet normal 0 0 -1
    outer loop
      vertex -2.48029 -0.313333 0
      vertex -2.19077 1.20438 0
      vertex -2.02254 1.46946 0
    endloop
  endfacet
  facet normal 0 0 -1
    outer loop
      vertex -2.48029 -0.313333 0
      vertex -2.02254 1.46946 0
      vertex -1.82242 1.71137 0
    endloop
  endfacet
  facet normal 0 0 -1
    outer loop
      vertex -2.48029 -0.313333 0
      vertex -1.82242 1.71137 0
      vertex -1.59356 1.92628 0
    endloop
  endfacet
  facet normal 0 0 -1
    outer loop
      vertex -2.48029 -0.313333 0
      vertex -1.59356 1.92628 0
      vertex -1.33957 2.11082 0
    endloop
  endfacet
  facet normal 0 0 -1
    outer loop
      vertex -2.48029 -0.313333 0
      vertex -1.33957 2.11082 0
      vertex -1.06445 2.26207 0
    endloop
  endfacet
  facet normal 0 0 -1
    outer loop
      vertex -2.48029 -0.313333 0
      vertex -1.06445 2.26207 0
      vertex -0.772542 2.37764 0
    endloop
  endfacet
  facet normal 0 0 -1
    outer loop
      vertex -2.48029 -0.313333 0
      vertex -0.772542 2.37764 0
      vertex -0.468453 2.45572 0
    endloop
  endfacet
  facet normal 0 0 -1
    outer loop
      vertex -2.48029 -0.313333 0
      vertex -0.468453 2.45572 0
      vertex -0.156976 2.49507 0
    endloop
  endfacet
  facet normal 0 0 -1
    outer loop
      vertex -2.48029 -0.313333 0
      vertex -0.156976 2.49507 0
      vertex 0.156976 2.49507 0
    endloop
  endfacet
  facet normal 0 0 -1
    outer loop
      vertex -2.48029 -0.313333 0
      vertex 0.156976 2.49507 0
      vertex 0.468453 2.45572 0
    endloop
  endfacet
  facet normal 0 0 -1
    outer loop
      vertex -2.48029 -0.313333 0
      vertex 0.468453 2.45572 0
      vertex 0.772542 2.37764 0
    endloop
  endfacet
  facet normal 0 0 -1
    outer loop
      vertex -2.48029 -0.313333 0
      vertex 0.772542 2.37764 0
      vertex 1.06445 2.26207 0
    endloop
  endfacet
  facet normal 0 0 -1
    outer loop
      vertex -2.48029 -0.313333 0
      vertex 1.06445 2.26207 0
      vertex 1.33957 2.11082 0
    endloop
  endfacet
  facet normal 0 0 -1
    outer loop
      vertex -2.48029 -0.313333 0
      vertex 1.33957 2.11082 0
      vertex 1.59356 1.92628 0
    endloop
  endfacet
  facet normal 0 0 -1
    outer loop
      vertex -2.48029 -0.313333 0
      vertex 1.59356 1.92628 0
      vertex 1.82242 1.71137 0
    endloop
  endfacet
  facet normal 0 0 -1
    outer loop
      vertex -2.48029 -0.313333 0
      vertex 1.82242 1.71137 0
      vertex 2.02254 1.46946 0
    endloop
  endfacet
  facet normal 0 0 -1
    outer loop
      vertex -2.48029 -0.313333 0
      vertex 2.02254 1.46946 0
      vertex 2.19077 1.20438 0
    endloop
  endfacet
  facet normal 0 0 -1
    outer loop
      vertex -2.48029 -0.313333 0
      vertex 2.19077 1.20438 0
      vertex 2.32444 0.920311 0
    endloop
  endfacet
  facet normal 0 0 -1
    outer loop
      vertex -2.48029 -0.313333 0
      vertex 2.32444 0.920311 0
      vertex 2.42146 0.621725 0
    endloop
  endfacet
  facet normal 0 0 -1
    outer loop
      vertex -2.48029 -0.313333 0
      vertex 2.42146 0.621725 0
      vertex 2.48029 0.313333 0
    endloop
  endfacet
  facet normal 0 0 -1
    outer loop
      vertex -2.48029 -0.313333 0
      vertex 2.48029 0.313333 0
      vertex 2.5 0 0
    endloop
  endfacet
  facet normal 0 0 -1
    outer loop
      vertex -2.48029 -0.313333 0
      vertex 2.5 0 0
      vertex 2.48029 -0.313333 0
    endloop
  endfacet
  facet normal 0 0 -1
    outer loop
      vertex -2.48029 -0.313333 0
      vertex 2.48029 -0.313333 0
      vertex 2.42146 -0.621725 0
    endloop
  endfacet
  facet normal 0 0 -1
    outer loop
      vertex -2.48029 -0.313333 0
      vertex 2.42146 -0.621725 0
      vertex 2.32444 -0.920311 0
    endloop
  endfacet
  facet normal 0 0 -1
    outer loop
      vertex -2.48029 -0.313333 0
      vertex 2.32444 -0.920311 0
      vertex 2.19077 -1.20438 0
    endloop
  endfacet
  facet normal 0 0 -1
    outer loop
      vertex -2.48029 -0.313333 0
      vertex 2.19077 -1.20438 0
      vertex 2.02254 -1.46946 0
    endloop
  endfacet
  facet normal 0 0 -1
    outer loop
      vertex -2.48029 -0.313333 0
      vertex 2.02254 -1.46946 0
      vertex 1.82242 -1.71137 0
    endloop
  endfacet
  facet normal 0 0 -1
    outer loop
      vertex -2.48029 -0.313333 0
      vertex 1.82242 -1.71137 0
      vertex 1.59356 -1.92628 0
    endloop
  endfacet
  facet normal 0 0 -1
    outer loop
      vertex -2.48029 -0.313333 0
      vertex 1.59356 -1.92628 0
      vertex 1.33957 -2.11082 0
    endloop
  endfacet
  facet normal 0 0 -1
    outer loop
      vertex -2.48029 -0.313333 0
      vertex 1.33957 -2.11082 0
      vertex 1.06445 -2.26207 0
    endloop
  endfacet
  facet normal 0 0 -1
    outer loop
      vertex -2.48029 -0.313333 0
      vertex 1.06445 -2.26207 0
      vertex 0.772542 -2.37764 0
    endloop
  endfacet
  facet normal 0 0 -1
    outer loop
      vertex -2.48029 -0.313333 0
      vertex 0.772542 -2.37764 0
      vertex 0.468453 -2.45572 0
    endloop
  endfacet
  facet normal 0 0 -1
    outer loop
      vertex -2.48029 -0.313333 0
      vertex 0.468453 -2.45572 0
      vertex 0.156976 -2.49507 0
    endloop
  endfacet
  facet normal 0 0 -1
    outer loop
      vertex -2.48029 -0.313333 0
      vertex 0.156976 -2.49507 0
      vertex -0.156976 -2.49507 0
    endloop
  endfacet
  facet normal 0 0 -1
    outer loop
      vertex -2.48029 -0.313333 0
      vertex -0.156976 -2.49507 0
      vertex -0.468453 -2.45572 0
    endloop
  endfacet
  facet normal 0 0 -1
    outer loop
      vertex -2.48029 -0.313333 0
      vertex -0.468453 -2.45572 0
      vertex -0.772542 -2.37764 0
    endloop
  endfacet
  facet normal 0 0 -1
    outer loop
      vertex -2.48029 -0.313333 0
      vertex -0.772542 -2.37764 0
      vertex -1.06445 -2.26207 0
    endloop
  endfacet
  facet normal 0 0 -1
    outer loop
      vertex -2.48029 -0.313333 0
      vertex -1.06445 -2.26207 0
      vertex -1.33957 -2.11082 0
    endloop
  endfacet
  facet normal 0 0 -1
    outer loop
      vertex -2.48029 -0.313333 0
      vertex -1.33957 -2.11082 0
      vertex -1.59356 -1.92628 0
    endloop
  endfacet
  facet normal 0 0 -1
    outer loop
      vertex -2.48029 -0.313333 0
      vertex -1.59356 -1.92628 0
      vertex -1.82242 -1.71137 0
    endloop
  endfacet
  facet normal 0 0 -1
    outer loop
      vertex -2.48029 -0.313333 0
      vertex -1.82242 -1.71137 0
      vertex -2.02254 -1.46946 0
    endloop
  endfacet
  facet normal 0 0 -1
    outer loop
      vertex -2.48029 -0.313333 0
      vertex -2.02254 -1.46946 0
      vertex -2.19077 -1.20438 0
    endloop
  endfacet
  facet normal 0 0 -1
    outer loop
      vertex -2.48029 -0.313333 0
      vertex -2.19077 -1.20438 0
      vertex -2.32444 -0.920311 0
    endloop
  endfacet
  facet normal 0 0 -1
    outer loop
      vertex -2.48029 -0.313333 0
      vertex -2.32444 -0.920311 0
      vertex -2.42146 -0.621725 0
    endloop
  endfacet
  facet normal -0.998027 0.0627898 0
    outer loop
      vertex -2.5 0 0
      vertex -2.5 0 30
      vertex -2.48029 0.313333 0
    endloop
  endfacet
  facet normal -0.998027 0.0627898 0
    outer loop
      vertex -2.48029 0.313333 0
      vertex -2.5 0 30
      vertex -2.48029 0.313333 30
    endloop
  endfacet
  facet normal -0.998027 -0.0627898 0
    outer loop
      vertex -2.5 0 0
      vertex -2.48029 -0.313333 0
      vertex -2.5 0 30
    endloop
  endfacet
  facet normal -0.998027 -0.0627898 0
    outer loop
      vertex -2.5 0 30
      vertex -2.48029 -0.313333 0
      vertex -2.48029 -0.313333 30
    endloop
  endfacet
  facet normal -0.982287 -0.187382 0
    outer loop
      vertex -2.48029 -0.313333 0
      vertex -2.42146 -0.621725 0
      vertex -2.48029 -0.313333 30
    endloop
  endfacet
  facet normal -0.982287 -0.187382 0
    outer loop
      vertex -2.48029 -0.313333 30
      vertex -2.42146 -0.621725 0
      vertex -2.42146 -0.621725 30
    endloop
  endfacet
  facet normal -0.951056 -0.309019 0
    outer loop
      vertex -2.42146 -0.621725 0
      vertex -2.32444 -0.920311 0
      vertex -2.42146 -0.621725 30
    endloop
  endfacet
  facet normal -0.951056 -0.309019 0
    outer loop
      vertex -2.33104 -0.9 30
      vertex -2.32444 -0.920311 0
      vertex -2.32444 -0.920311 30
    endloop
  endfacet
  facet normal -0.951056 -0.309019 0
    outer loop
      vertex -2.35 -0.841649 30
      vertex -2.32444 -0.920311 0
      vertex -2.33104 -0.9 30
    endloop
  endfacet
  facet normal -0.951056 -0.309019 0
    outer loop
      vertex -2.42146 -0.621725 30
      vertex -2.32444 -0.920311 0
      vertex -2.35 -0.841649 30
    endloop
  endfacet
  facet normal -0.904828 -0.425778 0
    outer loop
      vertex -2.32444 -0.920311 0
      vertex -2.19077 -1.20438 0
      vertex -2.32444 -0.920311 30
    endloop
  endfacet
  facet normal -0.904828 -0.425778 0
    outer loop
      vertex -2.32444 -0.920311 30
      vertex -2.19077 -1.20438 0
      vertex -2.19077 -1.20438 30
    endloop
  endfacet
  facet normal -0.844327 -0.535829 0
    outer loop
      vertex -2.19077 -1.20438 0
      vertex -2.02254 -1.46946 0
      vertex -2.19077 -1.20438 30
    endloop
  endfacet
  facet normal -0.844327 -0.535829 0
    outer loop
      vertex -2.19077 -1.20438 30
      vertex -2.02254 -1.46946 0
      vertex -2.02254 -1.46946 30
    endloop
  endfacet
  facet normal -0.770515 -0.637422 0
    outer loop
      vertex -2.02254 -1.46946 0
      vertex -1.82242 -1.71137 0
      vertex -2.02254 -1.46946 30
    endloop
  endfacet
  facet normal -0.770515 -0.637422 0
    outer loop
      vertex -2.02254 -1.46946 30
      vertex -1.82242 -1.71137 0
      vertex -1.82242 -1.71137 30
    endloop
  endfacet
  facet normal -0.684546 -0.72897 0
    outer loop
      vertex -1.82242 -1.71137 30
      vertex -1.82242 -1.71137 0
      vertex -1.59356 -1.92628 0
    endloop
  endfacet
  facet normal -0.684546 -0.72897 0
    outer loop
      vertex -1.59356 -1.92628 30
      vertex -1.82242 -1.71137 30
      vertex -1.59356 -1.92628 0
    endloop
  endfacet
  facet normal -0.587786 -0.809017 0
    outer loop
      vertex -1.59356 -1.92628 30
      vertex -1.59356 -1.92628 0
      vertex -1.33957 -2.11082 0
    endloop
  endfacet
  facet normal -0.587786 -0.809017 0
    outer loop
      vertex -1.33957 -2.11082 30
      vertex -1.59356 -1.92628 30
      vertex -1.33957 -2.11082 0
    endloop
  endfacet
  facet normal -0.481754 -0.876307 0
    outer loop
      vertex -1.33957 -2.11082 30
      vertex -1.33957 -2.11082 0
      vertex -1.06445 -2.26207 0
    endloop
  endfacet
  facet normal -0.481754 -0.876307 0
    outer loop
      vertex -1.06445 -2.26207 30
      vertex -1.33957 -2.11082 30
      vertex -1.06445 -2.26207 0
    endloop
  endfacet
  facet normal -0.368122 -0.929777 0
    outer loop
      vertex -1.06445 -2.26207 30
      vertex -1.06445 -2.26207 0
      vertex -0.772542 -2.37764 0
    endloop
  endfacet
  facet normal -0.368122 -0.929777 0
    outer loop
      vertex -0.9 -2.32718 30
      vertex -1.06445 -2.26207 30
      vertex -0.772542 -2.37764 0
    endloop
  endfacet
  facet normal -0.368122 -0.929777 0
    outer loop
      vertex -0.772542 -2.37764 30
      vertex -0.842356 -2.35 30
      vertex -0.772542 -2.37764 0
    endloop
  endfacet
  facet normal -0.368122 -0.929777 0
    outer loop
      vertex -0.842356 -2.35 30
      vertex -0.9 -2.32718 30
      vertex -0.772542 -2.37764 0
    endloop
  endfacet
  facet normal -0.248691 -0.968583 0
    outer loop
      vertex -0.772542 -2.37764 30
      vertex -0.772542 -2.37764 0
      vertex -0.468453 -2.45572 0
    endloop
  endfacet
  facet normal -0.248691 -0.968583 0
    outer loop
      vertex -0.468453 -2.45572 30
      vertex -0.772542 -2.37764 30
      vertex -0.468453 -2.45572 0
    endloop
  endfacet
  facet normal -0.125334 -0.992115 0
    outer loop
      vertex -0.468453 -2.45572 30
      vertex -0.468453 -2.45572 0
      vertex -0.156976 -2.49507 0
    endloop
  endfacet
  facet normal -0.125334 -0.992115 0
    outer loop
      vertex -0.156976 -2.49507 30
      vertex -0.468453 -2.45572 30
      vertex -0.156976 -2.49507 0
    endloop
  endfacet
  facet normal 0 -1 0
    outer loop
      vertex -0.156976 -2.49507 30
      vertex -0.156976 -2.49507 0
      vertex 0.156976 -2.49507 0
    endloop
  endfacet
  facet normal 0 -1 0
    outer loop
      vertex 0.156976 -2.49507 30
      vertex -0.156976 -2.49507 30
      vertex 0.156976 -2.49507 0
    endloop
  endfacet
  facet normal 0.125334 -0.992115 0
    outer loop
      vertex 0.156976 -2.49507 30
      vertex 0.156976 -2.49507 0
      vertex 0.468453 -2.45572 0
    endloop
  endfacet
  facet normal 0.125334 -0.992115 0
    outer loop
      vertex 0.468453 -2.45572 30
      vertex 0.156976 -2.49507 30
      vertex 0.468453 -2.45572 0
    endloop
  endfacet
  facet normal 0.248691 -0.968583 0
    outer loop
      vertex 0.468453 -2.45572 30
      vertex 0.468453 -2.45572 0
      vertex 0.772542 -2.37764 0
    endloop
  endfacet
  facet normal 0.248691 -0.968583 0
    outer loop
      vertex 0.772542 -2.37764 30
      vertex 0.468453 -2.45572 30
      vertex 0.772542 -2.37764 0
    endloop
  endfacet
  facet normal 0.368122 -0.929777 0
    outer loop
      vertex 0.772542 -2.37764 30
      vertex 0.772542 -2.37764 0
      vertex 1.06445 -2.26207 0
    endloop
  endfacet
  facet normal 0.368122 -0.929777 0
    outer loop
      vertex 0.842356 -2.35 30
      vertex 0.772542 -2.37764 30
      vertex 1.06445 -2.26207 0
    endloop
  endfacet
  facet normal 0.368122 -0.929777 0
    outer loop
      vertex 1.06445 -2.26207 30
      vertex 0.9 -2.32718 30
      vertex 1.06445 -2.26207 0
    endloop
  endfacet
  facet normal 0.368122 -0.929777 0
    outer loop
      vertex 0.9 -2.32718 30
      vertex 0.842356 -2.35 30
      vertex 1.06445 -2.26207 0
    endloop
  endfacet
  facet normal 0.481754 -0.876307 0
    outer loop
      vertex 1.06445 -2.26207 30
      vertex 1.06445 -2.26207 0
      vertex 1.33957 -2.11082 0
    endloop
  endfacet
  facet normal 0.481754 -0.876307 0
    outer loop
      vertex 1.33957 -2.11082 30
      vertex 1.06445 -2.26207 30
      vertex 1.33957 -2.11082 0
    endloop
  endfacet
  facet normal 0.587786 -0.809017 0
    outer loop
      vertex 1.33957 -2.11082 30
      vertex 1.33957 -2.11082 0
      vertex 1.59356 -1.92628 0
    endloop
  endfacet
  facet normal 0.587786 -0.809017 0
    outer loop
      vertex 1.59356 -1.92628 30
      vertex 1.33957 -2.11082 30
      vertex 1.59356 -1.92628 0
    endloop
  endfacet
  facet normal 0.684546 -0.72897 0
    outer loop
      vertex 1.59356 -1.92628 30
      vertex 1.59356 -1.92628 0
      vertex 1.82242 -1.71137 0
    endloop
  endfacet
  facet normal 0.684546 -0.72897 0
    outer loop
      vertex 1.82242 -1.71137 30
      vertex 1.59356 -1.92628 30
      vertex 1.82242 -1.71137 0
    endloop
  endfacet
  facet normal 0.770515 -0.637422 0
    outer loop
      vertex 1.82242 -1.71137 30
      vertex 1.82242 -1.71137 0
      vertex 2.02254 -1.46946 0
    endloop
  endfacet
  facet normal 0.770515 -0.637422 0
    outer loop
      vertex 2.02254 -1.46946 30
      vertex 1.82242 -1.71137 30
      vertex 2.02254 -1.46946 0
    endloop
  endfacet
  facet normal 0.844327 -0.535829 0
    outer loop
      vertex 2.02254 -1.46946 30
      vertex 2.02254 -1.46946 0
      vertex 2.19077 -1.20438 0
    endloop
  endfacet
  facet normal 0.844327 -0.535829 0
    outer loop
      vertex 2.19077 -1.20438 30
      vertex 2.02254 -1.46946 30
      vertex 2.19077 -1.20438 0
    endloop
  endfacet
  facet normal 0.904828 -0.425778 0
    outer loop
      vertex 2.19077 -1.20438 30
      vertex 2.19077 -1.20438 0
      vertex 2.32444 -0.920311 0
    endloop
  endfacet
  facet normal 0.904828 -0.425778 0
    outer loop
      vertex 2.32444 -0.920311 30
      vertex 2.19077 -1.20438 30
      vertex 2.32444 -0.920311 0
    endloop
  endfacet
  facet normal 0.951056 -0.309019 0
    outer loop
      vertex 2.32444 -0.920311 30
      vertex 2.32444 -0.920311 0
      vertex 2.42146 -0.621725 0
    endloop
  endfacet
  facet normal 0.951056 -0.309019 0
    outer loop
      vertex 2.33104 -0.9 30
      vertex 2.32444 -0.920311 30
      vertex 2.42146 -0.621725 0
    endloop
  endfacet
  facet normal 0.951056 -0.309019 0
    outer loop
      vertex 2.42146 -0.621725 30
      vertex 2.35 -0.841649 30
      vertex 2.42146 -0.621725 0
    endloop
  endfacet
  facet normal 0.951056 -0.309019 0
    outer loop
      vertex 2.35 -0.841649 30
      vertex 2.33104 -0.9 30
      vertex 2.42146 -0.621725 0
    endloop
  endfacet
  facet normal 0.982287 -0.187382 0
    outer loop
      vertex 2.42146 -0.621725 30
      vertex 2.42146 -0.621725 0
      vertex 2.48029 -0.313333 0
    endloop
  endfacet
  facet normal 0.982287 -0.187382 0
    outer loop
      vertex 2.48029 -0.313333 30
      vertex 2.42146 -0.621725 30
      vertex 2.48029 -0.313333 0
    endloop
  endfacet
  facet normal 0.998027 -0.0627898 0
    outer loop
      vertex 2.48029 -0.313333 30
      vertex 2.48029 -0.313333 0
      vertex 2.5 0 0
    endloop
  endfacet
  facet normal 0.998027 -0.0627898 0
    outer loop
      vertex 2.5 0 30
      vertex 2.48029 -0.313333 30
      vertex 2.5 0 0
    endloop
  endfacet
  facet normal 0.998027 0.0627898 0
    outer loop
      vertex 2.5 0 0
      vertex 2.48029 0.313333 0
      vertex 2.48029 0.313333 30
    endloop
  endfacet
  facet normal 0.998027 0.0627898 0
    outer loop
      vertex 2.5 0 30
      vertex 2.5 0 0
      vertex 2.48029 0.313333 30
    endloop
  endfacet
  facet normal 0.982287 0.187382 0
    outer loop
      vertex 2.48029 0.313333 0
      vertex 2.42146 0.621725 0
      vertex 2.42146 0.621725 30
    endloop
  endfacet
  facet normal 0.982287 0.187382 0
    outer loop
      vertex 2.48029 0.313333 30
      vertex 2.48029 0.313333 0
      vertex 2.42146 0.621725 30
    endloop
  endfacet
  facet normal 0.951056 0.309019 0
    outer loop
      vertex 2.42146 0.621725 0
      vertex 2.32444 0.920311 0
      vertex 2.32444 0.920311 30
    endloop
  endfacet
  facet normal 0.951056 0.309019 0
    outer loop
      vertex 2.35 0.841649 30
      vertex 2.42146 0.621725 0
      vertex 2.33104 0.9 30
    endloop
  endfacet
  facet normal 0.951056 0.309019 0
    outer loop
      vertex 2.33104 0.9 30
      vertex 2.42146 0.621725 0
      vertex 2.32444 0.920311 30
    endloop
  endfacet
  facet normal 0.951056 0.309019 0
    outer loop
      vertex 2.42146 0.621725 30
      vertex 2.42146 0.621725 0
      vertex 2.35 0.841649 30
    endloop
  endfacet
  facet normal 0.904828 0.425778 0
    outer loop
      vertex 2.32444 0.920311 0
      vertex 2.19077 1.20438 0
      vertex 2.19077 1.20438 30
    endloop
  endfacet
  facet normal 0.904828 0.425778 0
    outer loop
      vertex 2.32444 0.920311 30
      vertex 2.32444 0.920311 0
      vertex 2.19077 1.20438 30
    endloop
  endfacet
  facet normal 0.844327 0.535829 0
    outer loop
      vertex 2.19077 1.20438 0
      vertex 2.02254 1.46946 0
      vertex 2.02254 1.46946 30
    endloop
  endfacet
  facet normal 0.844327 0.535829 0
    outer loop
      vertex 2.19077 1.20438 30
      vertex 2.19077 1.20438 0
      vertex 2.02254 1.46946 30
    endloop
  endfacet
  facet normal 0.770515 0.637422 0
    outer loop
      vertex 2.02254 1.46946 0
      vertex 1.82242 1.71137 0
      vertex 1.82242 1.71137 30
    endloop
  endfacet
  facet normal 0.770515 0.637422 0
    outer loop
      vertex 2.02254 1.46946 30
      vertex 2.02254 1.46946 0
      vertex 1.82242 1.71137 30
    endloop
  endfacet
  facet normal 0.684546 0.72897 0
    outer loop
      vertex 1.59356 1.92628 0
      vertex 1.59356 1.92628 30
      vertex 1.82242 1.71137 0
    endloop
  endfacet
  facet normal 0.684546 0.72897 0
    outer loop
      vertex 1.82242 1.71137 0
      vertex 1.59356 1.92628 30
      vertex 1.82242 1.71137 30
    endloop
  endfacet
  facet normal 0.587786 0.809017 0
    outer loop
      vertex 1.33957 2.11082 0
      vertex 1.33957 2.11082 30
      vertex 1.59356 1.92628 0
    endloop
  endfacet
  facet normal 0.587786 0.809017 0
    outer loop
      vertex 1.59356 1.92628 0
      vertex 1.33957 2.11082 30
      vertex 1.59356 1.92628 30
    endloop
  endfacet
  facet normal 0.481754 0.876307 0
    outer loop
      vertex 1.06445 2.26207 0
      vertex 1.06445 2.26207 30
      vertex 1.33957 2.11082 0
    endloop
  endfacet
  facet normal 0.481754 0.876307 0
    outer loop
      vertex 1.33957 2.11082 0
      vertex 1.06445 2.26207 30
      vertex 1.33957 2.11082 30
    endloop
  endfacet
  facet normal 0.368122 0.929777 0
    outer loop
      vertex 0.772542 2.37764 0
      vertex 0.772542 2.37764 30
      vertex 1.06445 2.26207 0
    endloop
  endfacet
  facet normal 0.368122 0.929777 0
    outer loop
      vertex 1.06445 2.26207 0
      vertex 0.772542 2.37764 30
      vertex 0.842356 2.35 30
    endloop
  endfacet
  facet normal 0.368122 0.929777 0
    outer loop
      vertex 1.06445 2.26207 0
      vertex 0.842356 2.35 30
      vertex 0.9 2.32718 30
    endloop
  endfacet
  facet normal 0.368122 0.929777 0
    outer loop
      vertex 1.06445 2.26207 0
      vertex 0.9 2.32718 30
      vertex 1.06445 2.26207 30
    endloop
  endfacet
  facet normal 0.248691 0.968583 0
    outer loop
      vertex 0.468453 2.45572 0
      vertex 0.468453 2.45572 30
      vertex 0.772542 2.37764 0
    endloop
  endfacet
  facet normal 0.248691 0.968583 0
    outer loop
      vertex 0.772542 2.37764 0
      vertex 0.468453 2.45572 30
      vertex 0.772542 2.37764 30
    endloop
  endfacet
  facet normal 0.125334 0.992115 0
    outer loop
      vertex 0.156976 2.49507 0
      vertex 0.156976 2.49507 30
      vertex 0.468453 2.45572 0
    endloop
  endfacet
  facet normal 0.125334 0.992115 0
    outer loop
      vertex 0.468453 2.45572 0
      vertex 0.156976 2.49507 30
      vertex 0.468453 2.45572 30
    endloop
  endfacet
  facet normal 0 1 0
    outer loop
      vertex -0.156976 2.49507 0
      vertex -0.156976 2.49507 30
      vertex 0.156976 2.49507 0
    endloop
  endfacet
  facet normal 0 1 0
    outer loop
      vertex 0.156976 2.49507 0
      vertex -0.156976 2.49507 30
      vertex 0.156976 2.49507 30
    endloop
  endfacet
  facet normal -0.125334 0.992115 0
    outer loop
      vertex -0.468453 2.45572 0
      vertex -0.468453 2.45572 30
      vertex -0.156976 2.49507 0
    endloop
  endfacet
  facet normal -0.125334 0.992115 0
    outer loop
      vertex -0.156976 2.49507 0
      vertex -0.468453 2.45572 30
      vertex -0.156976 2.49507 30
    endloop
  endfacet
  facet normal -0.248691 0.968583 0
    outer loop
      vertex -0.772542 2.37764 0
      vertex -0.772542 2.37764 30
      vertex -0.468453 2.45572 0
    endloop
  endfacet
  facet normal -0.248691 0.968583 0
    outer loop
      vertex -0.468453 2.45572 0
      vertex -0.772542 2.37764 30
      vertex -0.468453 2.45572 30
    endloop
  endfacet
  facet normal -0.368122 0.929777 0
    outer loop
      vertex -1.06445 2.26207 0
      vertex -1.06445 2.26207 30
      vertex -0.772542 2.37764 0
    endloop
  endfacet
  facet normal -0.368122 0.929777 0
    outer loop
      vertex -0.772542 2.37764 0
      vertex -1.06445 2.26207 30
      vertex -0.9 2.32718 30
    endloop
  endfacet
  facet normal -0.368122 0.929777 0
    outer loop
      vertex -0.772542 2.37764 0
      vertex -0.9 2.32718 30
      vertex -0.842356 2.35 30
    endloop
  endfacet
  facet normal -0.368122 0.929777 0
    outer loop
      vertex -0.772542 2.37764 0
      vertex -0.842356 2.35 30
      vertex -0.772542 2.37764 30
    endloop
  endfacet
  facet normal -0.481754 0.876307 0
    outer loop
      vertex -1.33957 2.11082 0
      vertex -1.33957 2.11082 30
      vertex -1.06445 2.26207 0
    endloop
  endfacet
  facet normal -0.481754 0.876307 0
    outer loop
      vertex -1.06445 2.26207 0
      vertex -1.33957 2.11082 30
      vertex -1.06445 2.26207 30
    endloop
  endfacet
  facet normal -0.587786 0.809017 0
    outer loop
      vertex -1.59356 1.92628 0
      vertex -1.59356 1.92628 30
      vertex -1.33957 2.11082 0
    endloop
  endfacet
  facet normal -0.587786 0.809017 0
    outer loop
      vertex -1.33957 2.11082 0
      vertex -1.59356 1.92628 30
      vertex -1.33957 2.11082 30
    endloop
  endfacet
  facet normal -0.684546 0.72897 0
    outer loop
      vertex -1.82242 1.71137 0
      vertex -1.82242 1.71137 30
      vertex -1.59356 1.92628 0
    endloop
  endfacet
  facet normal -0.684546 0.72897 0
    outer loop
      vertex -1.59356 1.92628 0
      vertex -1.82242 1.71137 30
      vertex -1.59356 1.92628 30
    endloop
  endfacet
  facet normal -0.770515 0.637422 0
    outer loop
      vertex -2.02254 1.46946 0
      vertex -2.02254 1.46946 30
      vertex -1.82242 1.71137 0
    endloop
  endfacet
  facet normal -0.770515 0.637422 0
    outer loop
      vertex -1.82242 1.71137 0
      vertex -2.02254 1.46946 30
      vertex -1.82242 1.71137 30
    endloop
  endfacet
  facet normal -0.844327 0.535829 0
    outer loop
      vertex -2.19077 1.20438 0
      vertex -2.19077 1.20438 30
      vertex -2.02254 1.46946 0
    endloop
  endfacet
  facet normal -0.844327 0.535829 0
    outer loop
      vertex -2.02254 1.46946 0
      vertex -2.19077 1.20438 30
      vertex -2.02254 1.46946 30
    endloop
  endfacet
  facet normal -0.904828 0.425778 0
    outer loop
      vertex -2.32444 0.920311 0
      vertex -2.32444 0.920311 30
      vertex -2.19077 1.20438 0
    endloop
  endfacet
  facet normal -0.904828 0.425778 0
    outer loop
      vertex -2.19077 1.20438 0
      vertex -2.32444 0.920311 30
      vertex -2.19077 1.20438 30
    endloop
  endfacet
  facet normal -0.951056 0.309019 0
    outer loop
      vertex -2.42146 0.621725 0
      vertex -2.42146 0.621725 30
      vertex -2.32444 0.920311 0
    endloop
  endfacet
  facet normal -0.951056 0.309019 0
    outer loop
      vertex -2.32444 0.920311 0
      vertex -2.42146 0.621725 30
      vertex -2.35 0.841649 30
    endloop
  endfacet
  facet normal -0.951056 0.309019 0
    outer loop
      vertex -2.32444 0.920311 0
      vertex -2.35 0.841649 30
      vertex -2.33104 0.9 30
    endloop
  endfacet
  facet normal -0.951056 0.309019 0
    outer loop
      vertex -2.32444 0.920311 0
      vertex -2.33104 0.9 30
      vertex -2.32444 0.920311 30
    endloop
  endfacet
  facet normal -0.982287 0.187382 0
    outer loop
      vertex -2.48029 0.313333 0
      vertex -2.48029 0.313333 30
      vertex -2.42146 0.621725 0
    endloop
  endfacet
  facet normal -0.982287 0.187382 0
    outer loop
      vertex -2.42146 0.621725 0
      vertex -2.48029 0.313333 30
      vertex -2.42146 0.621725 30
    endloop
  endfacet
  facet normal 0 0 1
    outer loop
      vertex -2.48029 0.313333 30
      vertex -2.5 0 30
      vertex -2.48029 -0.313333 30
    endloop
  endfacet
  facet normal 0 0 1
    outer loop
      vertex -2.35 -0.841649 30
      vertex -2.48029 0.313333 30
      vertex -2.42146 -0.621725 30
    endloop
  endfacet
  facet normal 0 0 1
    outer loop
      vertex -2.42146 -0.621725 30
      vertex -2.48029 0.313333 30
      vertex -2.48029 -0.313333 30
    endloop
  endfacet
  facet normal 0 0 1
    outer loop
      vertex -2.35 0.841649 30
      vertex -2.48029 0.313333 30
      vertex -2.35 -0.841649 30
    endloop
  endfacet
  facet normal 0 0 1
    outer loop
      vertex -2.42146 0.621725 30
      vertex -2.48029 0.313333 30
      vertex -2.35 0.841649 30
    endloop
  endfacet
  facet normal -1 0 0
    outer loop
      vertex -2.35 -0.9 30
      vertex -2.35 -0.9 38
      vertex -2.35 -0.841649 30
    endloop
  endfacet
  facet normal -1 0 0
    outer loop
      vertex -2.35 -0.841649 30
      vertex -2.35 -0.9 38
      vertex -2.35 0.9 38
    endloop
  endfacet
  facet normal -1 0 0
    outer loop
      vertex -2.35 0.841649 30
      vertex -2.35 0.9 38
      vertex -2.35 0.9 30
    endloop
  endfacet
  facet normal -1 0 0
    outer loop
      vertex -2.35 -0.841649 30
      vertex -2.35 0.9 38
      vertex -2.35 0.841649 30
    endloop
  endfacet
  facet normal 0 0 -1
    outer loop
      vertex -2.35 -0.841649 30
      vertex -2.33104 -0.9 30
      vertex -2.35 -0.9 30
    endloop
  endfacet
  facet normal 0 -1 0
    outer loop
      vertex -2.35 -0.9 38
      vertex -2.35 -0.9 30
      vertex -2.33104 -0.9 30
    endloop
  endfacet
  facet normal 0 -1 0
    outer loop
      vertex -1.2868 -0.9 38
      vertex -2.35 -0.9 38
      vertex -1.2868 -0.9 30
    endloop
  endfacet
  facet normal 0 -1 0
    outer loop
      vertex -1.2868 -0.9 30
      vertex -2.35 -0.9 38
      vertex -2.33104 -0.9 30
    endloop
  endfacet
  facet normal 0 0 1
    outer loop
      vertex -1.2868 -0.9 30
      vertex -2.33104 -0.9 30
      vertex -2.32444 -0.920311 30
    endloop
  endfacet
  facet normal 0 0 1
    outer loop
      vertex -2.02254 -1.46946 30
      vertex -1.2868 -0.9 30
      vertex -2.19077 -1.20438 30
    endloop
  endfacet
  facet normal 0 0 1
    outer loop
      vertex -2.19077 -1.20438 30
      vertex -1.2868 -0.9 30
      vertex -2.32444 -0.920311 30
    endloop
  endfacet
  facet normal 0 0 1
    outer loop
      vertex -1.82242 -1.71137 30
      vertex -1.2868 -0.9 30
      vertex -2.02254 -1.46946 30
    endloop
  endfacet
  facet normal 0 0 1
    outer loop
      vertex -1.59356 -1.92628 30
      vertex -1.2868 -0.9 30
      vertex -1.82242 -1.71137 30
    endloop
  endfacet
  facet normal 0 0 1
    outer loop
      vertex -1.33957 -2.11082 30
      vertex -1.2868 -0.9 30
      vertex -1.59356 -1.92628 30
    endloop
  endfacet
  facet normal 0 0 1
    outer loop
      vertex -1.06445 -2.26207 30
      vertex -1.2868 -0.9 30
      vertex -1.33957 -2.11082 30
    endloop
  endfacet
  facet normal 0 0 1
    outer loop
      vertex -0.9 -2.32718 30
      vertex -1.2868 -0.9 30
      vertex -1.06445 -2.26207 30
    endloop
  endfacet
  facet normal 0 0 1
    outer loop
      vertex -0.9 -1.28783 30
      vertex -1.2868 -0.9 30
      vertex -0.9 -2.32718 30
    endloop
  endfacet
  facet normal 0 0 1
    outer loop
      vertex -0.785866 -1.20491 30
      vertex -1.2868 -0.9 30
      vertex -0.9 -1.28783 30
    endloop
  endfacet
  facet normal 0 0 1
    outer loop
      vertex -0.728571 -1.02857 30
      vertex -1.2868 -0.9 30
      vertex -0.785866 -1.20491 30
    endloop
  endfacet
  facet normal 0 0 1
    outer loop
      vertex -0.785866 -0.852235 30
      vertex -1.2868 -0.9 30
      vertex -0.728571 -1.02857 30
    endloop
  endfacet
  facet normal 0 0 1
    outer loop
      vertex -1.12128 -0.743254 30
      vertex -1.27128 -0.852235 30
      vertex -0.935866 -0.743254 30
    endloop
  endfacet
  facet normal 0 0 1
    outer loop
      vertex -0.935866 -0.743254 30
      vertex -1.27128 -0.852235 30
      vertex -0.785866 -0.852235 30
    endloop
  endfacet
  facet normal 0 0 1
    outer loop
      vertex -1.27128 -0.852235 30
      vertex -1.2868 -0.9 30
      vertex -0.785866 -0.852235 30
    endloop
  endfacet
  facet normal -1 0 0
    outer loop
      vertex -0.9 -2.35 30
      vertex -0.9 -2.35 38
      vertex -0.9 -2.32718 30
    endloop
  endfacet
  facet normal -1 0 0
    outer loop
      vertex -0.9 -2.32718 30
      vertex -0.9 -2.35 38
      vertex -0.9 -1.28783 38
    endloop
  endfacet
  facet normal -1 0 0
    outer loop
      vertex -0.9 -2.32718 30
      vertex -0.9 -1.28783 38
      vertex -0.9 -1.28783 30
    endloop
  endfacet
  facet normal 0 0 -1
    outer loop
      vertex -0.9 -2.32718 30
      vertex -0.842356 -2.35 30
      vertex -0.9 -2.35 30
    endloop
  endfacet
  facet normal 0 -1 0
    outer loop
      vertex -0.9 -2.35 38
      vertex -0.9 -2.35 30
      vertex -0.842356 -2.35 30
    endloop
  endfacet
  facet normal 0 -1 0
    outer loop
      vertex 0.9 -2.35 30
      vertex -0.9 -2.35 38
      vertex 0.842356 -2.35 30
    endloop
  endfacet
  facet normal 0 -1 0
    outer loop
      vertex 0.842356 -2.35 30
      vertex -0.9 -2.35 38
      vertex -0.842356 -2.35 30
    endloop
  endfacet
  facet normal 0 -1 0
    outer loop
      vertex 0.9 -2.35 38
      vertex -0.9 -2.35 38
      vertex 0.9 -2.35 30
    endloop
  endfacet
  facet normal 0 0 1
    outer loop
      vertex 0.842356 -2.35 30
      vertex -0.842356 -2.35 30
      vertex -0.772542 -2.37764 30
    endloop
  endfacet
  facet normal 0 0 1
    outer loop
      vertex -0.156976 -2.49507 30
      vertex 0.842356 -2.35 30
      vertex -0.468453 -2.45572 30
    endloop
  endfacet
  facet normal 0 0 1
    outer loop
      vertex -0.468453 -2.45572 30
      vertex 0.842356 -2.35 30
      vertex -0.772542 -2.37764 30
    endloop
  endfacet
  facet normal 0 0 1
    outer loop
      vertex 0.156976 -2.49507 30
      vertex 0.842356 -2.35 30
      vertex -0.156976 -2.49507 30
    endloop
  endfacet
  facet normal 0 0 1
    outer loop
      vertex 0.468453 -2.45572 30
      vertex 0.842356 -2.35 30
      vertex 0.156976 -2.49507 30
    endloop
  endfacet
  facet normal 0 0 1
    outer loop
      vertex 0.772542 -2.37764 30
      vertex 0.842356 -2.35 30
      vertex 0.468453 -2.45572 30
    endloop
  endfacet
  facet normal 0 0 -1
    outer loop
      vertex 0.9 -2.32718 30
      vertex 0.9 -2.35 30
      vertex 0.842356 -2.35 30
    endloop
  endfacet
  facet normal 1 0 0
    outer loop
      vertex 0.9 -2.35 38
      vertex 0.9 -2.35 30
      vertex 0.9 -2.32718 30
    endloop
  endfacet
  facet normal 1 0 0
    outer loop
      vertex 0.9 -1.2868 38
      vertex 0.9 -2.35 38
      vertex 0.9 -1.2868 30
    endloop
  endfacet
  facet normal 1 0 0
    outer loop
      vertex 0.9 -1.2868 30
      vertex 0.9 -2.35 38
      vertex 0.9 -2.32718 30
    endloop
  endfacet
  facet normal 0 0 1
    outer loop
      vertex 1.28783 -0.9 30
      vertex 1.20491 -0.785866 30
      vertex 0.743254 -0.935866 30
    endloop
  endfacet
  facet normal 0 0 1
    outer loop
      vertex 0.743254 -0.935866 30
      vertex 0.743254 -1.12128 30
      vertex 0.852235 -1.27128 30
    endloop
  endfacet
  facet normal 0 0 1
    outer loop
      vertex 1.33957 -2.11082 30
      vertex 0.743254 -0.935866 30
      vertex 0.9 -1.2868 30
    endloop
  endfacet
  facet normal 0 0 1
    outer loop
      vertex 0.9 -1.2868 30
      vertex 0.743254 -0.935866 30
      vertex 0.852235 -1.27128 30
    endloop
  endfacet
  facet normal 0 0 1
    outer loop
      vertex 0.9 -2.32718 30
      vertex 1.06445 -2.26207 30
      vertex 0.9 -1.2868 30
    endloop
  endfacet
  facet normal 0 0 1
    outer loop
      vertex 1.06445 -2.26207 30
      vertex 1.33957 -2.11082 30
      vertex 0.9 -1.2868 30
    endloop
  endfacet
  facet normal 0 0 1
    outer loop
      vertex 1.33957 -2.11082 30
      vertex 1.59356 -1.92628 30
      vertex 0.743254 -0.935866 30
    endloop
  endfacet
  facet normal 0 0 1
    outer loop
      vertex 1.59356 -1.92628 30
      vertex 1.82242 -1.71137 30
      vertex 0.743254 -0.935866 30
    endloop
  endfacet
  facet normal 0 0 1
    outer loop
      vertex 1.82242 -1.71137 30
      vertex 2.02254 -1.46946 30
      vertex 0.743254 -0.935866 30
    endloop
  endfacet
  facet normal 0 0 1
    outer loop
      vertex 2.02254 -1.46946 30
      vertex 2.19077 -1.20438 30
      vertex 0.743254 -0.935866 30
    endloop
  endfacet
  facet normal 0 0 1
    outer loop
      vertex 2.19077 -1.20438 30
      vertex 2.32444 -0.920311 30
      vertex 0.743254 -0.935866 30
    endloop
  endfacet
  facet normal 0 0 1
    outer loop
      vertex 2.32444 -0.920311 30
      vertex 2.33104 -0.9 30
      vertex 0.743254 -0.935866 30
    endloop
  endfacet
  facet normal 0 0 1
    outer loop
      vertex 2.33104 -0.9 30
      vertex 1.28783 -0.9 30
      vertex 0.743254 -0.935866 30
    endloop
  endfacet
  facet normal 0 0 1
    outer loop
      vertex 1.20491 -0.785866 30
      vertex 1.02857 -0.728571 30
      vertex 0.743254 -0.935866 30
    endloop
  endfacet
  facet normal 0 0 1
    outer loop
      vertex 1.02857 -0.728571 30
      vertex 0.852235 -0.785866 30
      vertex 0.743254 -0.935866 30
    endloop
  endfacet
  facet normal 0 -1 0
    outer loop
      vertex 1.28783 -0.9 38
      vertex 1.28783 -0.9 30
      vertex 2.33104 -0.9 30
    endloop
  endfacet
  facet normal 0 -1 0
    outer loop
      vertex 2.35 -0.9 38
      vertex 1.28783 -0.9 38
      vertex 2.35 -0.9 30
    endloop
  endfacet
  facet normal 0 -1 0
    outer loop
      vertex 2.35 -0.9 30
      vertex 1.28783 -0.9 38
      vertex 2.33104 -0.9 30
    endloop
  endfacet
  facet normal 0 0 -1
    outer loop
      vertex 2.35 -0.841649 30
      vertex 2.35 -0.9 30
      vertex 2.33104 -0.9 30
    endloop
  endfacet
  facet normal 1 0 0
    outer loop
      vertex 2.35 -0.9 38
      vertex 2.35 -0.9 30
      vertex 2.35 -0.841649 30
    endloop
  endfacet
  facet normal 1 0 0
    outer loop
      vertex 2.35 0.9 30
      vertex 2.35 -0.9 38
      vertex 2.35 0.841649 30
    endloop
  endfacet
  facet normal 1 0 0
    outer loop
      vertex 2.35 0.841649 30
      vertex 2.35 -0.9 38
      vertex 2.35 -0.841649 30
    endloop
  endfacet
  facet normal 1 0 0
    outer loop
      vertex 2.35 0.9 38
      vertex 2.35 -0.9 38
      vertex 2.35 0.9 30
    endloop
  endfacet
  facet normal 0 0 1
    outer loop
      vertex 2.35 0.841649 30
      vertex 2.35 -0.841649 30
      vertex 2.42146 -0.621725 30
    endloop
  endfacet
  facet normal 0 0 1
    outer loop
      vertex 2.5 0 30
      vertex 2.35 0.841649 30
      vertex 2.48029 -0.313333 30
    endloop
  endfacet
  facet normal 0 0 1
    outer loop
      vertex 2.48029 -0.313333 30
      vertex 2.35 0.841649 30
      vertex 2.42146 -0.621725 30
    endloop
  endfacet
  facet normal 0 0 1
    outer loop
      vertex 2.48029 0.313333 30
      vertex 2.35 0.841649 30
      vertex 2.5 0 30
    endloop
  endfacet
  facet normal 0 0 1
    outer loop
      vertex 2.42146 0.621725 30
      vertex 2.35 0.841649 30
      vertex 2.48029 0.313333 30
    endloop
  endfacet
  facet normal 0 0 -1
    outer loop
      vertex 2.35 0.9 30
      vertex 2.35 0.841649 30
      vertex 2.33104 0.9 30
    endloop
  endfacet
  facet normal 0 0 1
    outer loop
      vertex 0.785866 1.20491 30
      vertex 0.728571 1.02857 30
      vertex 0.785866 0.852235 30
    endloop
  endfacet
  facet normal 0 0 1
    outer loop
      vertex 1.12128 0.743254 30
      vertex 0.785866 1.20491 30
      vertex 0.935866 0.743254 30
    endloop
  endfacet
  facet normal 0 0 1
    outer loop
      vertex 0.935866 0.743254 30
      vertex 0.785866 1.20491 30
      vertex 0.785866 0.852235 30
    endloop
  endfacet
  facet normal 0 0 1
    outer loop
      vertex 1.27128 0.852235 30
      vertex 0.785866 1.20491 30
      vertex 1.12128 0.743254 30
    endloop
  endfacet
  facet normal 0 0 1
    outer loop
      vertex 1.2868 0.9 30
      vertex 0.785866 1.20491 30
      vertex 1.27128 0.852235 30
    endloop
  endfacet
  facet normal 0 0 1
    outer loop
      vertex 2.33104 0.9 30
      vertex 0.785866 1.20491 30
      vertex 1.2868 0.9 30
    endloop
  endfacet
  facet normal 0 0 1
    outer loop
      vertex 2.32444 0.920311 30
      vertex 0.785866 1.20491 30
      vertex 2.33104 0.9 30
    endloop
  endfacet
  facet normal 0 0 1
    outer loop
      vertex 2.19077 1.20438 30
      vertex 0.785866 1.20491 30
      vertex 2.32444 0.920311 30
    endloop
  endfacet
  facet normal 0 0 1
    outer loop
      vertex 2.02254 1.46946 30
      vertex 0.785866 1.20491 30
      vertex 2.19077 1.20438 30
    endloop
  endfacet
  facet normal 0 0 1
    outer loop
      vertex 1.82242 1.71137 30
      vertex 0.785866 1.20491 30
      vertex 2.02254 1.46946 30
    endloop
  endfacet
  facet normal 0 0 1
    outer loop
      vertex 0.9 1.28783 30
      vertex 0.785866 1.20491 30
      vertex 1.82242 1.71137 30
    endloop
  endfacet
  facet normal 0 0 1
    outer loop
      vertex 1.59356 1.92628 30
      vertex 0.9 1.28783 30
      vertex 1.82242 1.71137 30
    endloop
  endfacet
  facet normal 0 0 1
    outer loop
      vertex 0.9 2.32718 30
      vertex 1.33957 2.11082 30
      vertex 1.06445 2.26207 30
    endloop
  endfacet
  facet normal 0 0 1
    outer loop
      vertex 0.9 2.32718 30
      vertex 1.59356 1.92628 30
      vertex 1.33957 2.11082 30
    endloop
  endfacet
  facet normal 0 0 1
    outer loop
      vertex 0.9 2.32718 30
      vertex 0.9 1.28783 30
      vertex 1.59356 1.92628 30
    endloop
  endfacet
  facet normal 0 1 0
    outer loop
      vertex 1.2868 0.9 30
      vertex 1.2868 0.9 38
      vertex 2.33104 0.9 30
    endloop
  endfacet
  facet normal 0 1 0
    outer loop
      vertex 2.33104 0.9 30
      vertex 1.2868 0.9 38
      vertex 2.35 0.9 38
    endloop
  endfacet
  facet normal 0 1 0
    outer loop
      vertex 2.33104 0.9 30
      vertex 2.35 0.9 38
      vertex 2.35 0.9 30
    endloop
  endfacet
  facet normal 1 0 0
    outer loop
      vertex 0.9 1.28783 38
      vertex 0.9 1.28783 30
      vertex 0.9 2.32718 30
    endloop
  endfacet
  facet normal 1 0 0
    outer loop
      vertex 0.9 2.35 38
      vertex 0.9 1.28783 38
      vertex 0.9 2.35 30
    endloop
  endfacet
  facet normal 1 0 0
    outer loop
      vertex 0.9 2.35 30
      vertex 0.9 1.28783 38
      vertex 0.9 2.32718 30
    endloop
  endfacet
  facet normal 0 0 -1
    outer loop
      vertex 0.9 2.35 30
      vertex 0.9 2.32718 30
      vertex 0.842356 2.35 30
    endloop
  endfacet
  facet normal 0 0 1
    outer loop
      vertex -0.772542 2.37764 30
      vertex -0.842356 2.35 30
      vertex 0.842356 2.35 30
    endloop
  endfacet
  facet normal 0 0 1
    outer loop
      vertex 0.468453 2.45572 30
      vertex -0.772542 2.37764 30
      vertex 0.772542 2.37764 30
    endloop
  endfacet
  facet normal 0 0 1
    outer loop
      vertex 0.772542 2.37764 30
      vertex -0.772542 2.37764 30
      vertex 0.842356 2.35 30
    endloop
  endfacet
  facet normal 0 0 1
    outer loop
      vertex 0.156976 2.49507 30
      vertex -0.772542 2.37764 30
      vertex 0.468453 2.45572 30
    endloop
  endfacet
  facet normal 0 0 1
    outer loop
      vertex -0.156976 2.49507 30
      vertex -0.772542 2.37764 30
      vertex 0.156976 2.49507 30
    endloop
  endfacet
  facet normal 0 0 1
    outer loop
      vertex -0.468453 2.45572 30
      vertex -0.772542 2.37764 30
      vertex -0.156976 2.49507 30
    endloop
  endfacet
  facet normal 0 1 0
    outer loop
      vertex -0.9 2.35 30
      vertex -0.9 2.35 38
      vertex -0.842356 2.35 30
    endloop
  endfacet
  facet normal 0 1 0
    outer loop
      vertex -0.842356 2.35 30
      vertex -0.9 2.35 38
      vertex 0.9 2.35 38
    endloop
  endfacet
  facet normal 0 1 0
    outer loop
      vertex 0.842356 2.35 30
      vertex 0.9 2.35 38
      vertex 0.9 2.35 30
    endloop
  endfacet
  facet normal 0 1 0
    outer loop
      vertex -0.842356 2.35 30
      vertex 0.9 2.35 38
      vertex 0.842356 2.35 30
    endloop
  endfacet
  facet normal 0 0 -1
    outer loop
      vertex -0.9 2.35 30
      vertex -0.842356 2.35 30
      vertex -0.9 2.32718 30
    endloop
  endfacet
  facet normal 0 0 1
    outer loop
      vertex -1.20491 0.785866 30
      vertex -1.02857 0.728571 30
      vertex -1.28783 0.9 30
    endloop
  endfacet
  facet normal 0 0 1
    outer loop
      vertex -2.32444 0.920311 30
      vertex -2.33104 0.9 30
      vertex -1.28783 0.9 30
    endloop
  endfacet
  facet normal 0 0 1
    outer loop
      vertex -0.9 1.2868 30
      vertex -0.9 2.32718 30
      vertex -2.32444 0.920311 30
    endloop
  endfacet
  facet normal 0 0 1
    outer loop
      vertex -0.743254 0.935866 30
      vertex -2.32444 0.920311 30
      vertex -1.28783 0.9 30
    endloop
  endfacet
  facet normal 0 0 1
    outer loop
      vertex -1.02857 0.728571 30
      vertex -0.852235 0.785866 30
      vertex -1.28783 0.9 30
    endloop
  endfacet
  facet normal 0 0 1
    outer loop
      vertex -0.852235 0.785866 30
      vertex -0.743254 0.935866 30
      vertex -1.28783 0.9 30
    endloop
  endfacet
  facet normal 0 0 1
    outer loop
      vertex -0.743254 0.935866 30
      vertex -0.743254 1.12128 30
      vertex -2.32444 0.920311 30
    endloop
  endfacet
  facet normal 0 0 1
    outer loop
      vertex -0.743254 1.12128 30
      vertex -0.852235 1.27128 30
      vertex -2.32444 0.920311 30
    endloop
  endfacet
  facet normal 0 0 1
    outer loop
      vertex -0.852235 1.27128 30
      vertex -0.9 1.2868 30
      vertex -2.32444 0.920311 30
    endloop
  endfacet
  facet normal 0 0 1
    outer loop
      vertex -0.9 2.32718 30
      vertex -1.06445 2.26207 30
      vertex -2.32444 0.920311 30
    endloop
  endfacet
  facet normal 0 0 1
    outer loop
      vertex -1.06445 2.26207 30
      vertex -1.33957 2.11082 30
      vertex -2.32444 0.920311 30
    endloop
  endfacet
  facet normal 0 0 1
    outer loop
      vertex -1.33957 2.11082 30
      vertex -1.59356 1.92628 30
      vertex -2.32444 0.920311 30
    endloop
  endfacet
  facet normal 0 0 1
    outer loop
      vertex -1.59356 1.92628 30
      vertex -1.82242 1.71137 30
      vertex -2.32444 0.920311 30
    endloop
  endfacet
  facet normal 0 0 1
    outer loop
      vertex -1.82242 1.71137 30
      vertex -2.02254 1.46946 30
      vertex -2.32444 0.920311 30
    endloop
  endfacet
  facet normal 0 0 1
    outer loop
      vertex -2.02254 1.46946 30
      vertex -2.19077 1.20438 30
      vertex -2.32444 0.920311 30
    endloop
  endfacet
  facet normal -1 0 0
    outer loop
      vertex -0.9 1.2868 30
      vertex -0.9 1.2868 38
      vertex -0.9 2.32718 30
    endloop
  endfacet
  facet normal -1 0 0
    outer loop
      vertex -0.9 2.32718 30
      vertex -0.9 1.2868 38
      vertex -0.9 2.35 38
    endloop
  endfacet
  facet normal -1 0 0
    outer loop
      vertex -0.9 2.32718 30
      vertex -0.9 2.35 38
      vertex -0.9 2.35 30
    endloop
  endfacet
  facet normal 0 0 -1
    outer loop
      vertex -2.35 0.9 30
      vertex -2.33104 0.9 30
      vertex -2.35 0.841649 30
    endloop
  endfacet
  facet normal 0 1 0
    outer loop
      vertex -2.35 0.9 30
      vertex -2.35 0.9 38
      vertex -2.33104 0.9 30
    endloop
  endfacet
  facet normal 0 1 0
    outer loop
      vertex -2.33104 0.9 30
      vertex -2.35 0.9 38
      vertex -1.28783 0.9 38
    endloop
  endfacet
  facet normal 0 1 0
    outer loop
      vertex -2.33104 0.9 30
      vertex -1.28783 0.9 38
      vertex -1.28783 0.9 30
    endloop
  endfacet
  facet normal 0 0 1
    outer loop
      vertex -0.785866 -1.20491 38
      vertex -0.9 -2.35 38
      vertex -0.728571 -1.02857 38
    endloop
  endfacet
  facet normal 0 0 1
    outer loop
      vertex -2.35 0.9 38
      vertex -2.35 -0.9 38
      vertex -1.2868 -0.9 38
    endloop
  endfacet
  facet normal 0 0 1
    outer loop
      vertex -1.12128 -0.743254 38
      vertex -2.35 0.9 38
      vertex -1.27128 -0.852235 38
    endloop
  endfacet
  facet normal 0 0 1
    outer loop
      vertex -1.27128 -0.852235 38
      vertex -2.35 0.9 38
      vertex -1.2868 -0.9 38
    endloop
  endfacet
  facet normal 0 0 1
    outer loop
      vertex -0.935866 -0.743254 38
      vertex -2.35 0.9 38
      vertex -1.12128 -0.743254 38
    endloop
  endfacet
  facet normal 0 0 1
    outer loop
      vertex -0.785866 -0.852235 38
      vertex -2.35 0.9 38
      vertex -0.935866 -0.743254 38
    endloop
  endfacet
  facet normal 0 0 1
    outer loop
      vertex 0.9 -2.35 38
      vertex -2.35 0.9 38
      vertex -0.785866 -0.852235 38
    endloop
  endfacet
  facet normal 0 0 1
    outer loop
      vertex 0.9 -2.35 38
      vertex -0.785866 -0.852235 38
      vertex -0.728571 -1.02857 38
    endloop
  endfacet
  facet normal 0 0 1
    outer loop
      vertex -0.9 -1.28783 38
      vertex -0.9 -2.35 38
      vertex -0.785866 -1.20491 38
    endloop
  endfacet
  facet normal 0 0 1
    outer loop
      vertex 0.743254 -1.12128 38
      vertex 0.743254 -0.935866 38
      vertex -2.35 0.9 38
    endloop
  endfacet
  facet normal 0 0 1
    outer loop
      vertex -0.9 -2.35 38
      vertex 0.9 -2.35 38
      vertex -0.728571 -1.02857 38
    endloop
  endfacet
  facet normal 0 0 1
    outer loop
      vertex -1.20491 0.785866 38
      vertex -1.28783 0.9 38
      vertex -2.35 0.9 38
    endloop
  endfacet
  facet normal 0 0 1
    outer loop
      vertex 1.20491 -0.785866 38
      vertex 2.35 -0.9 38
      vertex -2.35 0.9 38
    endloop
  endfacet
  facet normal 0 0 1
    outer loop
      vertex 0.9 -2.35 38
      vertex 0.852235 -1.27128 38
      vertex -2.35 0.9 38
    endloop
  endfacet
  facet normal 0 0 1
    outer loop
      vertex 0.9 -2.35 38
      vertex 0.9 -1.2868 38
      vertex 0.852235 -1.27128 38
    endloop
  endfacet
  facet normal 0 0 1
    outer loop
      vertex 0.743254 -0.935866 38
      vertex 0.852235 -0.785866 38
      vertex -2.35 0.9 38
    endloop
  endfacet
  facet normal 0 0 1
    outer loop
      vertex 0.852235 -0.785866 38
      vertex 1.02857 -0.728571 38
      vertex -2.35 0.9 38
    endloop
  endfacet
  facet normal 0 0 1
    outer loop
      vertex 1.02857 -0.728571 38
      vertex 1.20491 -0.785866 38
      vertex -2.35 0.9 38
    endloop
  endfacet
  facet normal 0 0 1
    outer loop
      vertex 1.28783 -0.9 38
      vertex 2.35 -0.9 38
      vertex 1.20491 -0.785866 38
    endloop
  endfacet
  facet normal 0 0 1
    outer loop
      vertex -0.743254 1.12128 38
      vertex 0.728571 1.02857 38
      vertex 0.785866 1.20491 38
    endloop
  endfacet
  facet normal 0 0 1
    outer loop
      vertex 2.35 -0.9 38
      vertex 2.35 0.9 38
      vertex 1.2868 0.9 38
    endloop
  endfacet
  facet normal 0 0 1
    outer loop
      vertex 2.35 -0.9 38
      vertex 1.2868 0.9 38
      vertex 1.27128 0.852235 38
    endloop
  endfacet
  facet normal 0 0 1
    outer loop
      vertex 2.35 -0.9 38
      vertex 1.27128 0.852235 38
      vertex 1.12128 0.743254 38
    endloop
  endfacet
  facet normal 0 0 1
    outer loop
      vertex 2.35 -0.9 38
      vertex 1.12128 0.743254 38
      vertex 0.935866 0.743254 38
    endloop
  endfacet
  facet normal 0 0 1
    outer loop
      vertex -0.743254 0.935866 38
      vertex 0.935866 0.743254 38
      vertex 0.785866 0.852235 38
    endloop
  endfacet
  facet normal 0 0 1
    outer loop
      vertex -0.9 1.2868 38
      vertex 0.9 1.28783 38
      vertex 0.9 2.35 38
    endloop
  endfacet
  facet normal 0 0 1
    outer loop
      vertex -0.743254 1.12128 38
      vertex 0.785866 1.20491 38
      vertex 0.9 1.28783 38
    endloop
  endfacet
  facet normal 0 0 1
    outer loop
      vertex -0.852235 1.27128 38
      vertex 0.9 1.28783 38
      vertex -0.9 1.2868 38
    endloop
  endfacet
  facet normal 0 0 1
    outer loop
      vertex -0.743254 1.12128 38
      vertex 0.9 1.28783 38
      vertex -0.852235 1.27128 38
    endloop
  endfacet
  facet normal 0 0 1
    outer loop
      vertex -0.743254 0.935866 38
      vertex -0.852235 0.785866 38
      vertex 0.935866 0.743254 38
    endloop
  endfacet
  facet normal 0 0 1
    outer loop
      vertex 2.35 -0.9 38
      vertex 0.935866 0.743254 38
      vertex -0.852235 0.785866 38
    endloop
  endfacet
  facet normal 0 0 1
    outer loop
      vertex 2.35 -0.9 38
      vertex -1.02857 0.728571 38
      vertex -2.35 0.9 38
    endloop
  endfacet
  facet normal 0 0 1
    outer loop
      vertex 2.35 -0.9 38
      vertex -0.852235 0.785866 38
      vertex -1.02857 0.728571 38
    endloop
  endfacet
  facet normal 0 0 1
    outer loop
      vertex -1.02857 0.728571 38
      vertex -1.20491 0.785866 38
      vertex -2.35 0.9 38
    endloop
  endfacet
  facet normal 0 0 1
    outer loop
      vertex -0.743254 1.12128 38
      vertex -0.743254 0.935866 38
      vertex 0.728571 1.02857 38
    endloop
  endfacet
  facet normal 0 0 1
    outer loop
      vertex -0.9 2.35 38
      vertex -0.9 1.2868 38
      vertex 0.9 2.35 38
    endloop
  endfacet
  facet normal 0 0 1
    outer loop
      vertex 0.852235 -1.27128 38
      vertex 0.743254 -1.12128 38
      vertex -2.35 0.9 38
    endloop
  endfacet
  facet normal 0 0 1
    outer loop
      vertex 0.785866 0.852235 38
      vertex 0.728571 1.02857 38
      vertex -0.743254 0.935866 38
    endloop
  endfacet
  facet normal 0.951057 -0.309017 0
    outer loop
      vertex -1.27128 -0.852235 30
      vertex -1.27128 -0.852235 38
      vertex -1.2868 -0.9 38
    endloop
  endfacet
  facet normal 0.951057 -0.309017 0
    outer loop
      vertex -1.2868 -0.9 30
      vertex -1.27128 -0.852235 30
      vertex -1.2868 -0.9 38
    endloop
  endfacet
  facet normal 0.587784 -0.809018 0
    outer loop
      vertex -1.12128 -0.743254 30
      vertex -1.12128 -0.743254 38
      vertex -1.27128 -0.852235 38
    endloop
  endfacet
  facet normal 0.587784 -0.809018 0
    outer loop
      vertex -1.27128 -0.852235 30
      vertex -1.12128 -0.743254 30
      vertex -1.27128 -0.852235 38
    endloop
  endfacet
  facet normal -1.22461e-016 -1 0
    outer loop
      vertex -0.935866 -0.743254 30
      vertex -0.935866 -0.743254 38
      vertex -1.12128 -0.743254 38
    endloop
  endfacet
  facet normal -1.22461e-016 -1 0
    outer loop
      vertex -1.12128 -0.743254 30
      vertex -0.935866 -0.743254 30
      vertex -1.12128 -0.743254 38
    endloop
  endfacet
  facet normal -0.587784 -0.809018 0
    outer loop
      vertex -0.785866 -0.852235 30
      vertex -0.785866 -0.852235 38
      vertex -0.935866 -0.743254 38
    endloop
  endfacet
  facet normal -0.587784 -0.809018 0
    outer loop
      vertex -0.935866 -0.743254 30
      vertex -0.785866 -0.852235 30
      vertex -0.935866 -0.743254 38
    endloop
  endfacet
  facet normal -0.951057 -0.309017 0
    outer loop
      vertex -0.728571 -1.02857 38
      vertex -0.785866 -0.852235 38
      vertex -0.728571 -1.02857 30
    endloop
  endfacet
  facet normal -0.951057 -0.309017 0
    outer loop
      vertex -0.728571 -1.02857 30
      vertex -0.785866 -0.852235 38
      vertex -0.785866 -0.852235 30
    endloop
  endfacet
  facet normal -0.951057 0.309017 0
    outer loop
      vertex -0.728571 -1.02857 38
      vertex -0.728571 -1.02857 30
      vertex -0.785866 -1.20491 38
    endloop
  endfacet
  facet normal -0.951057 0.309017 0
    outer loop
      vertex -0.785866 -1.20491 38
      vertex -0.728571 -1.02857 30
      vertex -0.785866 -1.20491 30
    endloop
  endfacet
  facet normal -0.587784 0.809018 0
    outer loop
      vertex -0.785866 -1.20491 38
      vertex -0.785866 -1.20491 30
      vertex -0.9 -1.28783 38
    endloop
  endfacet
  facet normal -0.587784 0.809018 0
    outer loop
      vertex -0.9 -1.28783 38
      vertex -0.785866 -1.20491 30
      vertex -0.9 -1.28783 30
    endloop
  endfacet
  facet normal 0.309017 0.951057 0
    outer loop
      vertex 0.9 -1.2868 38
      vertex 0.9 -1.2868 30
      vertex 0.852235 -1.27128 38
    endloop
  endfacet
  facet normal 0.309017 0.951057 0
    outer loop
      vertex 0.852235 -1.27128 38
      vertex 0.9 -1.2868 30
      vertex 0.852235 -1.27128 30
    endloop
  endfacet
  facet normal 1 -1.36718e-016 0
    outer loop
      vertex 0.743254 -0.935866 30
      vertex 0.743254 -0.935866 38
      vertex 0.743254 -1.12128 38
    endloop
  endfacet
  facet normal 1 -1.36718e-016 0
    outer loop
      vertex 0.743254 -1.12128 30
      vertex 0.743254 -0.935866 30
      vertex 0.743254 -1.12128 38
    endloop
  endfacet
  facet normal 0.809018 -0.587784 0
    outer loop
      vertex 0.852235 -0.785866 30
      vertex 0.852235 -0.785866 38
      vertex 0.743254 -0.935866 38
    endloop
  endfacet
  facet normal 0.809018 -0.587784 0
    outer loop
      vertex 0.743254 -0.935866 30
      vertex 0.852235 -0.785866 30
      vertex 0.743254 -0.935866 38
    endloop
  endfacet
  facet normal 0.309017 -0.951057 0
    outer loop
      vertex 1.02857 -0.728571 30
      vertex 1.02857 -0.728571 38
      vertex 0.852235 -0.785866 38
    endloop
  endfacet
  facet normal 0.309017 -0.951057 0
    outer loop
      vertex 0.852235 -0.785866 30
      vertex 1.02857 -0.728571 30
      vertex 0.852235 -0.785866 38
    endloop
  endfacet
  facet normal -0.309017 -0.951057 0
    outer loop
      vertex 1.20491 -0.785866 30
      vertex 1.20491 -0.785866 38
      vertex 1.02857 -0.728571 38
    endloop
  endfacet
  facet normal -0.309017 -0.951057 0
    outer loop
      vertex 1.02857 -0.728571 30
      vertex 1.20491 -0.785866 30
      vertex 1.02857 -0.728571 38
    endloop
  endfacet
  facet normal -0.809018 -0.587784 0
    outer loop
      vertex 1.28783 -0.9 38
      vertex 1.20491 -0.785866 38
      vertex 1.28783 -0.9 30
    endloop
  endfacet
  facet normal -0.809018 -0.587784 0
    outer loop
      vertex 1.28783 -0.9 30
      vertex 1.20491 -0.785866 38
      vertex 1.20491 -0.785866 30
    endloop
  endfacet
  facet normal 0.809018 0.587784 0
    outer loop
      vertex 0.743254 -1.12128 38
      vertex 0.852235 -1.27128 38
      vertex 0.852235 -1.27128 30
    endloop
  endfacet
  facet normal 0.809018 0.587784 0
    outer loop
      vertex 0.743254 -1.12128 30
      vertex 0.743254 -1.12128 38
      vertex 0.852235 -1.27128 30
    endloop
  endfacet
  facet normal 0.951057 -0.309017 0
    outer loop
      vertex 0.785866 1.20491 30
      vertex 0.785866 1.20491 38
      vertex 0.728571 1.02857 38
    endloop
  endfacet
  facet normal 0.951057 -0.309017 0
    outer loop
      vertex 0.728571 1.02857 30
      vertex 0.785866 1.20491 30
      vertex 0.728571 1.02857 38
    endloop
  endfacet
  facet normal 0.587784 -0.809018 0
    outer loop
      vertex 0.9 1.28783 30
      vertex 0.9 1.28783 38
      vertex 0.785866 1.20491 38
    endloop
  endfacet
  facet normal 0.587784 -0.809018 0
    outer loop
      vertex 0.785866 1.20491 30
      vertex 0.9 1.28783 30
      vertex 0.785866 1.20491 38
    endloop
  endfacet
  facet normal -0.951057 0.309017 0
    outer loop
      vertex 1.2868 0.9 38
      vertex 1.2868 0.9 30
      vertex 1.27128 0.852235 38
    endloop
  endfacet
  facet normal -0.951057 0.309017 0
    outer loop
      vertex 1.27128 0.852235 38
      vertex 1.2868 0.9 30
      vertex 1.27128 0.852235 30
    endloop
  endfacet
  facet normal -0.587784 0.809018 0
    outer loop
      vertex 1.27128 0.852235 38
      vertex 1.27128 0.852235 30
      vertex 1.12128 0.743254 38
    endloop
  endfacet
  facet normal -0.587784 0.809018 0
    outer loop
      vertex 1.12128 0.743254 38
      vertex 1.27128 0.852235 30
      vertex 1.12128 0.743254 30
    endloop
  endfacet
  facet normal 0 1 0
    outer loop
      vertex 1.12128 0.743254 38
      vertex 1.12128 0.743254 30
      vertex 0.935866 0.743254 38
    endloop
  endfacet
  facet normal 0 1 0
    outer loop
      vertex 0.935866 0.743254 38
      vertex 1.12128 0.743254 30
      vertex 0.935866 0.743254 30
    endloop
  endfacet
  facet normal 0.587784 0.809018 0
    outer loop
      vertex 0.935866 0.743254 38
      vertex 0.935866 0.743254 30
      vertex 0.785866 0.852235 38
    endloop
  endfacet
  facet normal 0.587784 0.809018 0
    outer loop
      vertex 0.785866 0.852235 38
      vertex 0.935866 0.743254 30
      vertex 0.785866 0.852235 30
    endloop
  endfacet
  facet normal 0.951057 0.309017 0
    outer loop
      vertex 0.728571 1.02857 38
      vertex 0.785866 0.852235 38
      vertex 0.785866 0.852235 30
    endloop
  endfacet
  facet normal 0.951057 0.309017 0
    outer loop
      vertex 0.728571 1.02857 30
      vertex 0.728571 1.02857 38
      vertex 0.785866 0.852235 30
    endloop
  endfacet
  facet normal -0.309017 -0.951057 0
    outer loop
      vertex -0.852235 1.27128 30
      vertex -0.852235 1.27128 38
      vertex -0.9 1.2868 38
    endloop
  endfacet
  facet normal -0.309017 -0.951057 0
    outer loop
      vertex -0.9 1.2868 30
      vertex -0.852235 1.27128 30
      vertex -0.9 1.2868 38
    endloop
  endfacet
  facet normal -0.809018 -0.587784 0
    outer loop
      vertex -0.743254 1.12128 38
      vertex -0.852235 1.27128 38
      vertex -0.743254 1.12128 30
    endloop
  endfacet
  facet normal -0.809018 -0.587784 0
    outer loop
      vertex -0.743254 1.12128 30
      vertex -0.852235 1.27128 38
      vertex -0.852235 1.27128 30
    endloop
  endfacet
  facet normal -1 1.77321e-016 0
    outer loop
      vertex -0.743254 1.12128 38
      vertex -0.743254 1.12128 30
      vertex -0.743254 0.935866 38
    endloop
  endfacet
  facet normal -1 1.77321e-016 0
    outer loop
      vertex -0.743254 0.935866 38
      vertex -0.743254 1.12128 30
      vertex -0.743254 0.935866 30
    endloop
  endfacet
  facet normal -0.809018 0.587784 0
    outer loop
      vertex -0.743254 0.935866 38
      vertex -0.743254 0.935866 30
      vertex -0.852235 0.785866 38
    endloop
  endfacet
  facet normal -0.809018 0.587784 0
    outer loop
      vertex -0.852235 0.785866 38
      vertex -0.743254 0.935866 30
      vertex -0.852235 0.785866 30
    endloop
  endfacet
  facet normal -0.309017 0.951057 0
    outer loop
      vertex -0.852235 0.785866 38
      vertex -0.852235 0.785866 30
      vertex -1.02857 0.728571 38
    endloop
  endfacet
  facet normal -0.309017 0.951057 0
    outer loop
      vertex -1.02857 0.728571 38
      vertex -0.852235 0.785866 30
      vertex -1.02857 0.728571 30
    endloop
  endfacet
  facet normal 0.309017 0.951057 0
    outer loop
      vertex -1.02857 0.728571 38
      vertex -1.02857 0.728571 30
      vertex -1.20491 0.785866 38
    endloop
  endfacet
  facet normal 0.309017 0.951057 0
    outer loop
      vertex -1.20491 0.785866 38
      vertex -1.02857 0.728571 30
      vertex -1.20491 0.785866 30
    endloop
  endfacet
  facet normal 0.809018 0.587784 0
    outer loop
      vertex -1.28783 0.9 38
      vertex -1.20491 0.785866 38
      vertex -1.20491 0.785866 30
    endloop
  endfacet
  facet normal 0.809018 0.587784 0
    outer loop
      vertex -1.28783 0.9 30
      vertex -1.28783 0.9 38
      vertex -1.20491 0.785866 30
    endloop
  endfacet
endsolid OpenSCAD_Model
