solid OpenSCAD_Model
  facet normal 0 0 -1
    outer loop
      vertex -13 0 0
      vertex -12.6194 1.91342 0
      vertex -12.6194 -1.91342 0
    endloop
  endfacet
  facet normal 0 0 -1
    outer loop
      vertex -12.6194 -1.91342 0
      vertex -12.6194 1.91342 0
      vertex -11.5355 3.53553 0
    endloop
  endfacet
  facet normal 0 0 -1
    outer loop
      vertex -12.6194 -1.91342 0
      vertex -11.5355 3.53553 0
      vertex -9.91342 4.6194 0
    endloop
  endfacet
  facet normal 0 0 -1
    outer loop
      vertex -12.6194 -1.91342 0
      vertex -9.91342 4.6194 0
      vertex -8 5 0
    endloop
  endfacet
  facet normal 0 0 -1
    outer loop
      vertex -7.10511 1.55 0
      vertex -8 5 0
      vertex 8 5 0
    endloop
  endfacet
  facet normal 0 0 -1
    outer loop
      vertex -6.21021 -2.19178e-016 0
      vertex 8 5 0
      vertex 9.91342 4.6194 0
    endloop
  endfacet
  facet normal 0 0 -1
    outer loop
      vertex 8.89489 1.55 0
      vertex 11.5355 3.53553 0
      vertex 12.6194 1.91342 0
    endloop
  endfacet
  facet normal 0 0 -1
    outer loop
      vertex 8.89489 -1.55 0
      vertex 13 0 0
      vertex 12.6194 -1.91342 0
    endloop
  endfacet
  facet normal 0 0 -1
    outer loop
      vertex -12.6194 -1.91342 0
      vertex 12.6194 -1.91342 0
      vertex 11.5355 -3.53553 0
    endloop
  endfacet
  facet normal 0 0 -1
    outer loop
      vertex -12.6194 -1.91342 0
      vertex 11.5355 -3.53553 0
      vertex 9.91342 -4.6194 0
    endloop
  endfacet
  facet normal 0 0 -1
    outer loop
      vertex -12.6194 -1.91342 0
      vertex 9.91342 -4.6194 0
      vertex 8 -5 0
    endloop
  endfacet
  facet normal 0 0 -1
    outer loop
      vertex -12.6194 -1.91342 0
      vertex 8 -5 0
      vertex -8 -5 0
    endloop
  endfacet
  facet normal 0 0 -1
    outer loop
      vertex -12.6194 -1.91342 0
      vertex -8 -5 0
      vertex -9.91342 -4.6194 0
    endloop
  endfacet
  facet normal 0 0 -1
    outer loop
      vertex -12.6194 -1.91342 0
      vertex -9.91342 -4.6194 0
      vertex -11.5355 -3.53553 0
    endloop
  endfacet
  facet normal 0 0 -1
    outer loop
      vertex -12.6194 -1.91342 0
      vertex -8 5 0
      vertex -9.78979 2.19178e-016 0
    endloop
  endfacet
  facet normal 0 0 -1
    outer loop
      vertex -7.10511 -1.55 0
      vertex -12.6194 -1.91342 0
      vertex -8.89489 -1.55 0
    endloop
  endfacet
  facet normal 0 0 -1
    outer loop
      vertex 7.10511 -1.55 0
      vertex -7.10511 -1.55 0
      vertex -6.21021 -2.19178e-016 0
    endloop
  endfacet
  facet normal 0 0 -1
    outer loop
      vertex -12.6194 -1.91342 0
      vertex -7.10511 -1.55 0
      vertex 12.6194 -1.91342 0
    endloop
  endfacet
  facet normal 0 0 -1
    outer loop
      vertex -8.89489 1.55 0
      vertex -8 5 0
      vertex -7.10511 1.55 0
    endloop
  endfacet
  facet normal 0 0 -1
    outer loop
      vertex 6.21021 2.19178e-016 0
      vertex -6.21021 -2.19178e-016 0
      vertex 7.10511 1.55 0
    endloop
  endfacet
  facet normal 0 0 -1
    outer loop
      vertex -9.78979 2.19178e-016 0
      vertex -8 5 0
      vertex -8.89489 1.55 0
    endloop
  endfacet
  facet normal 0 0 -1
    outer loop
      vertex 9.78979 -2.19178e-016 0
      vertex 13 0 0
      vertex 8.89489 -1.55 0
    endloop
  endfacet
  facet normal 0 0 -1
    outer loop
      vertex -7.10511 -1.55 0
      vertex 7.10511 -1.55 0
      vertex 12.6194 -1.91342 0
    endloop
  endfacet
  facet normal 0 0 -1
    outer loop
      vertex 8.89489 1.55 0
      vertex 13 0 0
      vertex 9.78979 -2.19178e-016 0
    endloop
  endfacet
  facet normal 0 0 -1
    outer loop
      vertex 7.10511 -1.55 0
      vertex 8.89489 -1.55 0
      vertex 12.6194 -1.91342 0
    endloop
  endfacet
  facet normal 0 0 -1
    outer loop
      vertex 7.10511 1.55 0
      vertex 11.5355 3.53553 0
      vertex 8.89489 1.55 0
    endloop
  endfacet
  facet normal 0 0 -1
    outer loop
      vertex -8.89489 -1.55 0
      vertex -12.6194 -1.91342 0
      vertex -9.78979 2.19178e-016 0
    endloop
  endfacet
  facet normal 0 0 -1
    outer loop
      vertex -6.21021 -2.19178e-016 0
      vertex 9.91342 4.6194 0
      vertex 11.5355 3.53553 0
    endloop
  endfacet
  facet normal 0 0 -1
    outer loop
      vertex -6.21021 -2.19178e-016 0
      vertex 11.5355 3.53553 0
      vertex 7.10511 1.55 0
    endloop
  endfacet
  facet normal 0 0 -1
    outer loop
      vertex 8.89489 1.55 0
      vertex 12.6194 1.91342 0
      vertex 13 0 0
    endloop
  endfacet
  facet normal 0 0 -1
    outer loop
      vertex 7.10511 -1.55 0
      vertex -6.21021 -2.19178e-016 0
      vertex 6.21021 2.19178e-016 0
    endloop
  endfacet
  facet normal 0 0 -1
    outer loop
      vertex -7.10511 1.55 0
      vertex 8 5 0
      vertex -6.21021 -2.19178e-016 0
    endloop
  endfacet
  facet normal -0.980785 0.19509 0
    outer loop
      vertex -13 0 0
      vertex -13 0 3
      vertex -12.6194 1.91342 0
    endloop
  endfacet
  facet normal -0.980785 0.19509 0
    outer loop
      vertex -12.6194 1.91342 0
      vertex -13 0 3
      vertex -12.6194 1.91342 3
    endloop
  endfacet
  facet normal -0.980785 -0.19509 0
    outer loop
      vertex -13 0 0
      vertex -12.6194 -1.91342 0
      vertex -13 0 3
    endloop
  endfacet
  facet normal -0.980785 -0.19509 0
    outer loop
      vertex -13 0 3
      vertex -12.6194 -1.91342 0
      vertex -12.6194 -1.91342 3
    endloop
  endfacet
  facet normal -0.83147 -0.55557 0
    outer loop
      vertex -12.6194 -1.91342 0
      vertex -11.5355 -3.53553 0
      vertex -12.6194 -1.91342 3
    endloop
  endfacet
  facet normal -0.83147 -0.55557 0
    outer loop
      vertex -12.6194 -1.91342 3
      vertex -11.5355 -3.53553 0
      vertex -11.5355 -3.53553 3
    endloop
  endfacet
  facet normal -0.55557 -0.83147 0
    outer loop
      vertex -11.5355 -3.53553 3
      vertex -11.5355 -3.53553 0
      vertex -9.91342 -4.6194 0
    endloop
  endfacet
  facet normal -0.55557 -0.83147 0
    outer loop
      vertex -9.91342 -4.6194 3
      vertex -11.5355 -3.53553 3
      vertex -9.91342 -4.6194 0
    endloop
  endfacet
  facet normal -0.19509 -0.980785 0
    outer loop
      vertex -9.91342 -4.6194 3
      vertex -9.91342 -4.6194 0
      vertex -8 -5 0
    endloop
  endfacet
  facet normal -0.19509 -0.980785 0
    outer loop
      vertex -8 -5 3
      vertex -9.91342 -4.6194 3
      vertex -8 -5 0
    endloop
  endfacet
  facet normal 0 -1 0
    outer loop
      vertex -5 -5 2.25
      vertex -8 -5 0
      vertex 8 -5 0
    endloop
  endfacet
  facet normal 0 -1 0
    outer loop
      vertex -5 -5 2.25
      vertex -5 -5 3
      vertex -8 -5 3
    endloop
  endfacet
  facet normal 0 -1 0
    outer loop
      vertex 8 -5 3
      vertex 5 -5 3
      vertex 8 -5 0
    endloop
  endfacet
  facet normal 0 -1 0
    outer loop
      vertex 5 -5 3
      vertex 5 -5 2.25
      vertex 8 -5 0
    endloop
  endfacet
  facet normal 0 -1 0
    outer loop
      vertex -8 -5 3
      vertex -8 -5 0
      vertex -5 -5 2.25
    endloop
  endfacet
  facet normal 0 -1 0
    outer loop
      vertex 5 -5 2.25
      vertex -5 -5 2.25
      vertex 8 -5 0
    endloop
  endfacet
  facet normal 0.19509 -0.980785 0
    outer loop
      vertex 8 -5 3
      vertex 8 -5 0
      vertex 9.91342 -4.6194 0
    endloop
  endfacet
  facet normal 0.19509 -0.980785 0
    outer loop
      vertex 9.91342 -4.6194 3
      vertex 8 -5 3
      vertex 9.91342 -4.6194 0
    endloop
  endfacet
  facet normal 0.55557 -0.83147 0
    outer loop
      vertex 9.91342 -4.6194 3
      vertex 9.91342 -4.6194 0
      vertex 11.5355 -3.53553 0
    endloop
  endfacet
  facet normal 0.55557 -0.83147 0
    outer loop
      vertex 11.5355 -3.53553 3
      vertex 9.91342 -4.6194 3
      vertex 11.5355 -3.53553 0
    endloop
  endfacet
  facet normal 0.83147 -0.55557 0
    outer loop
      vertex 11.5355 -3.53553 3
      vertex 11.5355 -3.53553 0
      vertex 12.6194 -1.91342 0
    endloop
  endfacet
  facet normal 0.83147 -0.55557 0
    outer loop
      vertex 12.6194 -1.91342 3
      vertex 11.5355 -3.53553 3
      vertex 12.6194 -1.91342 0
    endloop
  endfacet
  facet normal 0.980785 -0.19509 0
    outer loop
      vertex 12.6194 -1.91342 3
      vertex 12.6194 -1.91342 0
      vertex 13 0 0
    endloop
  endfacet
  facet normal 0.980785 -0.19509 0
    outer loop
      vertex 13 0 3
      vertex 12.6194 -1.91342 3
      vertex 13 0 0
    endloop
  endfacet
  facet normal 0.980785 0.19509 0
    outer loop
      vertex 13 0 0
      vertex 12.6194 1.91342 0
      vertex 12.6194 1.91342 3
    endloop
  endfacet
  facet normal 0.980785 0.19509 0
    outer loop
      vertex 13 0 3
      vertex 13 0 0
      vertex 12.6194 1.91342 3
    endloop
  endfacet
  facet normal 0.83147 0.55557 0
    outer loop
      vertex 12.6194 1.91342 0
      vertex 11.5355 3.53553 0
      vertex 11.5355 3.53553 3
    endloop
  endfacet
  facet normal 0.83147 0.55557 0
    outer loop
      vertex 12.6194 1.91342 3
      vertex 12.6194 1.91342 0
      vertex 11.5355 3.53553 3
    endloop
  endfacet
  facet normal 0.55557 0.83147 0
    outer loop
      vertex 9.91342 4.6194 0
      vertex 9.91342 4.6194 3
      vertex 11.5355 3.53553 0
    endloop
  endfacet
  facet normal 0.55557 0.83147 0
    outer loop
      vertex 11.5355 3.53553 0
      vertex 9.91342 4.6194 3
      vertex 11.5355 3.53553 3
    endloop
  endfacet
  facet normal 0.19509 0.980785 0
    outer loop
      vertex 8 5 0
      vertex 8 5 3
      vertex 9.91342 4.6194 0
    endloop
  endfacet
  facet normal 0.19509 0.980785 0
    outer loop
      vertex 9.91342 4.6194 0
      vertex 8 5 3
      vertex 9.91342 4.6194 3
    endloop
  endfacet
  facet normal 0 1 0
    outer loop
      vertex 5 5 2.25
      vertex 8 5 0
      vertex -5 5 2.25
    endloop
  endfacet
  facet normal 0 1 0
    outer loop
      vertex -8 5 0
      vertex -8 5 3
      vertex -5 5 2.25
    endloop
  endfacet
  facet normal 0 1 0
    outer loop
      vertex -8 5 0
      vertex -5 5 2.25
      vertex 8 5 0
    endloop
  endfacet
  facet normal 0 1 0
    outer loop
      vertex 8 5 0
      vertex 5 5 2.25
      vertex 5 5 3
    endloop
  endfacet
  facet normal 0 1 0
    outer loop
      vertex 8 5 0
      vertex 5 5 3
      vertex 8 5 3
    endloop
  endfacet
  facet normal 0 1 0
    outer loop
      vertex -5 5 2.25
      vertex -8 5 3
      vertex -5 5 3
    endloop
  endfacet
  facet normal -0.19509 0.980785 0
    outer loop
      vertex -9.91342 4.6194 0
      vertex -9.91342 4.6194 3
      vertex -8 5 0
    endloop
  endfacet
  facet normal -0.19509 0.980785 0
    outer loop
      vertex -8 5 0
      vertex -9.91342 4.6194 3
      vertex -8 5 3
    endloop
  endfacet
  facet normal -0.55557 0.83147 0
    outer loop
      vertex -11.5355 3.53553 0
      vertex -11.5355 3.53553 3
      vertex -9.91342 4.6194 0
    endloop
  endfacet
  facet normal -0.55557 0.83147 0
    outer loop
      vertex -9.91342 4.6194 0
      vertex -11.5355 3.53553 3
      vertex -9.91342 4.6194 3
    endloop
  endfacet
  facet normal -0.83147 0.55557 0
    outer loop
      vertex -12.6194 1.91342 0
      vertex -12.6194 1.91342 3
      vertex -11.5355 3.53553 0
    endloop
  endfacet
  facet normal -0.83147 0.55557 0
    outer loop
      vertex -11.5355 3.53553 0
      vertex -12.6194 1.91342 3
      vertex -11.5355 3.53553 3
    endloop
  endfacet
  facet normal 0.866025 -0.5 0
    outer loop
      vertex -8.89489 1.55 0
      vertex -8.89489 1.55 3
      vertex -9.78979 2.19178e-016 3
    endloop
  endfacet
  facet normal 0.866025 -0.5 0
    outer loop
      vertex -9.78979 2.19178e-016 0
      vertex -8.89489 1.55 0
      vertex -9.78979 2.19178e-016 3
    endloop
  endfacet
  facet normal 0.866025 0.5 0
    outer loop
      vertex -9.78979 2.19178e-016 3
      vertex -8.89489 -1.55 3
      vertex -8.89489 -1.55 0
    endloop
  endfacet
  facet normal 0.866025 0.5 0
    outer loop
      vertex -9.78979 2.19178e-016 0
      vertex -9.78979 2.19178e-016 3
      vertex -8.89489 -1.55 0
    endloop
  endfacet
  facet normal -1.22461e-016 -1 0
    outer loop
      vertex -7.10511 1.55 0
      vertex -7.10511 1.55 3
      vertex -8.89489 1.55 3
    endloop
  endfacet
  facet normal -1.22461e-016 -1 0
    outer loop
      vertex -8.89489 1.55 0
      vertex -7.10511 1.55 0
      vertex -8.89489 1.55 3
    endloop
  endfacet
  facet normal -0.866025 -0.5 0
    outer loop
      vertex -6.21021 -2.19178e-016 3
      vertex -7.10511 1.55 3
      vertex -6.21021 -2.19178e-016 0
    endloop
  endfacet
  facet normal -0.866025 -0.5 0
    outer loop
      vertex -6.21021 -2.19178e-016 0
      vertex -7.10511 1.55 3
      vertex -7.10511 1.55 0
    endloop
  endfacet
  facet normal -0.866025 0.5 0
    outer loop
      vertex -6.21021 -2.19178e-016 3
      vertex -6.21021 -2.19178e-016 0
      vertex -7.10511 -1.55 3
    endloop
  endfacet
  facet normal -0.866025 0.5 0
    outer loop
      vertex -7.10511 -1.55 3
      vertex -6.21021 -2.19178e-016 0
      vertex -7.10511 -1.55 0
    endloop
  endfacet
  facet normal 1.22461e-016 1 0
    outer loop
      vertex -7.10511 -1.55 3
      vertex -7.10511 -1.55 0
      vertex -8.89489 -1.55 3
    endloop
  endfacet
  facet normal 1.22461e-016 1 0
    outer loop
      vertex -8.89489 -1.55 3
      vertex -7.10511 -1.55 0
      vertex -8.89489 -1.55 0
    endloop
  endfacet
  facet normal 0.866025 -0.5 0
    outer loop
      vertex 7.10511 1.55 0
      vertex 7.10511 1.55 3
      vertex 6.21021 2.19178e-016 3
    endloop
  endfacet
  facet normal 0.866025 -0.5 0
    outer loop
      vertex 6.21021 2.19178e-016 0
      vertex 7.10511 1.55 0
      vertex 6.21021 2.19178e-016 3
    endloop
  endfacet
  facet normal 0.866025 0.5 0
    outer loop
      vertex 6.21021 2.19178e-016 3
      vertex 7.10511 -1.55 3
      vertex 7.10511 -1.55 0
    endloop
  endfacet
  facet normal 0.866025 0.5 0
    outer loop
      vertex 6.21021 2.19178e-016 0
      vertex 6.21021 2.19178e-016 3
      vertex 7.10511 -1.55 0
    endloop
  endfacet
  facet normal -1.22461e-016 -1 0
    outer loop
      vertex 8.89489 1.55 0
      vertex 8.89489 1.55 3
      vertex 7.10511 1.55 3
    endloop
  endfacet
  facet normal -1.22461e-016 -1 0
    outer loop
      vertex 7.10511 1.55 0
      vertex 8.89489 1.55 0
      vertex 7.10511 1.55 3
    endloop
  endfacet
  facet normal -0.866025 -0.5 0
    outer loop
      vertex 9.78979 -2.19178e-016 3
      vertex 8.89489 1.55 3
      vertex 9.78979 -2.19178e-016 0
    endloop
  endfacet
  facet normal -0.866025 -0.5 0
    outer loop
      vertex 9.78979 -2.19178e-016 0
      vertex 8.89489 1.55 3
      vertex 8.89489 1.55 0
    endloop
  endfacet
  facet normal -0.866025 0.5 0
    outer loop
      vertex 9.78979 -2.19178e-016 3
      vertex 9.78979 -2.19178e-016 0
      vertex 8.89489 -1.55 3
    endloop
  endfacet
  facet normal -0.866025 0.5 0
    outer loop
      vertex 8.89489 -1.55 3
      vertex 9.78979 -2.19178e-016 0
      vertex 8.89489 -1.55 0
    endloop
  endfacet
  facet normal 1.22461e-016 1 0
    outer loop
      vertex 8.89489 -1.55 3
      vertex 8.89489 -1.55 0
      vertex 7.10511 -1.55 3
    endloop
  endfacet
  facet normal 1.22461e-016 1 0
    outer loop
      vertex 7.10511 -1.55 3
      vertex 8.89489 -1.55 0
      vertex 7.10511 -1.55 0
    endloop
  endfacet
  facet normal 0 0 1
    outer loop
      vertex -12.6194 1.91342 3
      vertex -13 0 3
      vertex -12.6194 -1.91342 3
    endloop
  endfacet
  facet normal 0 0 1
    outer loop
      vertex -9.91342 -4.6194 3
      vertex -12.6194 1.91342 3
      vertex -11.5355 -3.53553 3
    endloop
  endfacet
  facet normal 0 0 1
    outer loop
      vertex -11.5355 -3.53553 3
      vertex -12.6194 1.91342 3
      vertex -12.6194 -1.91342 3
    endloop
  endfacet
  facet normal 0 0 1
    outer loop
      vertex -8 -5 3
      vertex -12.6194 1.91342 3
      vertex -9.91342 -4.6194 3
    endloop
  endfacet
  facet normal 0 0 1
    outer loop
      vertex -8.89489 -1.55 3
      vertex -12.6194 1.91342 3
      vertex -8 -5 3
    endloop
  endfacet
  facet normal 0 0 1
    outer loop
      vertex 5 -4.15 3
      vertex -5 -4.15 3
      vertex 5 -4.85 3
    endloop
  endfacet
  facet normal 0 0 1
    outer loop
      vertex -6.21021 -2.19178e-016 3
      vertex -7.10511 -1.55 3
      vertex -5 -0.85 3
    endloop
  endfacet
  facet normal 0 0 1
    outer loop
      vertex 8 -5 3
      vertex 5 -4.85 3
      vertex 5 -5 3
    endloop
  endfacet
  facet normal 0 0 1
    outer loop
      vertex -7.10511 1.55 3
      vertex -6.21021 -2.19178e-016 3
      vertex -5 -0.15 3
    endloop
  endfacet
  facet normal 0 0 1
    outer loop
      vertex -5 -0.85 3
      vertex 5 -0.85 3
      vertex -5 -0.15 3
    endloop
  endfacet
  facet normal 0 0 1
    outer loop
      vertex 5 1.15 3
      vertex 5 -0.15 3
      vertex 6.21021 2.19178e-016 3
    endloop
  endfacet
  facet normal 0 0 1
    outer loop
      vertex 5 3.15 3
      vertex 5 1.85 3
      vertex 12.6194 1.91342 3
    endloop
  endfacet
  facet normal 0 0 1
    outer loop
      vertex -5 3.15 3
      vertex -5 3.85 3
      vertex -12.6194 1.91342 3
    endloop
  endfacet
  facet normal 0 0 1
    outer loop
      vertex 5 3.85 3
      vertex -5 3.85 3
      vertex -5 3.15 3
    endloop
  endfacet
  facet normal 0 0 1
    outer loop
      vertex -8.89489 -1.55 3
      vertex -9.78979 2.19178e-016 3
      vertex -12.6194 1.91342 3
    endloop
  endfacet
  facet normal 0 0 1
    outer loop
      vertex 9.91342 4.6194 3
      vertex 5 3.85 3
      vertex 11.5355 3.53553 3
    endloop
  endfacet
  facet normal 0 0 1
    outer loop
      vertex -5 5 3
      vertex -12.6194 1.91342 3
      vertex -5 3.85 3
    endloop
  endfacet
  facet normal 0 0 1
    outer loop
      vertex -8 5 3
      vertex -12.6194 1.91342 3
      vertex -5 5 3
    endloop
  endfacet
  facet normal 0 0 1
    outer loop
      vertex -9.91342 4.6194 3
      vertex -12.6194 1.91342 3
      vertex -8 5 3
    endloop
  endfacet
  facet normal 0 0 1
    outer loop
      vertex -11.5355 3.53553 3
      vertex -12.6194 1.91342 3
      vertex -9.91342 4.6194 3
    endloop
  endfacet
  facet normal 0 0 1
    outer loop
      vertex -5 -5 3
      vertex -8.89489 -1.55 3
      vertex -8 -5 3
    endloop
  endfacet
  facet normal 0 0 1
    outer loop
      vertex 5 -0.85 3
      vertex 5 -2.15 3
      vertex 11.5355 -3.53553 3
    endloop
  endfacet
  facet normal 0 0 1
    outer loop
      vertex -5 -0.85 3
      vertex -5 -0.15 3
      vertex -6.21021 -2.19178e-016 3
    endloop
  endfacet
  facet normal 0 0 1
    outer loop
      vertex -5 -2.85 3
      vertex 5 -2.85 3
      vertex -5 -2.15 3
    endloop
  endfacet
  facet normal 0 0 1
    outer loop
      vertex -5 1.85 3
      vertex -12.6194 1.91342 3
      vertex -7.10511 1.55 3
    endloop
  endfacet
  facet normal 0 0 1
    outer loop
      vertex -5 -4.15 3
      vertex -7.10511 -1.55 3
      vertex -5 -4.85 3
    endloop
  endfacet
  facet normal 0 0 1
    outer loop
      vertex -5 -2.15 3
      vertex -5 -0.85 3
      vertex -7.10511 -1.55 3
    endloop
  endfacet
  facet normal 0 0 1
    outer loop
      vertex 5 -4.85 3
      vertex -5 -4.15 3
      vertex -5 -4.85 3
    endloop
  endfacet
  facet normal 0 0 1
    outer loop
      vertex -5 -2.85 3
      vertex -7.10511 -1.55 3
      vertex -5 -4.15 3
    endloop
  endfacet
  facet normal 0 0 1
    outer loop
      vertex 5 -2.85 3
      vertex 8 -5 3
      vertex 9.91342 -4.6194 3
    endloop
  endfacet
  facet normal 0 0 1
    outer loop
      vertex -5 -2.15 3
      vertex -7.10511 -1.55 3
      vertex -5 -2.85 3
    endloop
  endfacet
  facet normal 0 0 1
    outer loop
      vertex 11.5355 -3.53553 3
      vertex 5 -2.85 3
      vertex 9.91342 -4.6194 3
    endloop
  endfacet
  facet normal 0 0 1
    outer loop
      vertex -5 -0.15 3
      vertex -5 1.15 3
      vertex -7.10511 1.55 3
    endloop
  endfacet
  facet normal 0 0 1
    outer loop
      vertex 8 -5 3
      vertex 5 -4.15 3
      vertex 5 -4.85 3
    endloop
  endfacet
  facet normal 0 0 1
    outer loop
      vertex 5 -2.85 3
      vertex 5 -4.15 3
      vertex 8 -5 3
    endloop
  endfacet
  facet normal 0 0 1
    outer loop
      vertex 7.10511 -1.55 3
      vertex 5 -0.85 3
      vertex 11.5355 -3.53553 3
    endloop
  endfacet
  facet normal 0 0 1
    outer loop
      vertex -8.89489 1.55 3
      vertex -7.10511 1.55 3
      vertex -12.6194 1.91342 3
    endloop
  endfacet
  facet normal 0 0 1
    outer loop
      vertex 11.5355 -3.53553 3
      vertex 5 -2.15 3
      vertex 5 -2.85 3
    endloop
  endfacet
  facet normal 0 0 1
    outer loop
      vertex -5 1.15 3
      vertex 5 1.15 3
      vertex -7.10511 1.55 3
    endloop
  endfacet
  facet normal 0 0 1
    outer loop
      vertex 6.21021 2.19178e-016 3
      vertex 7.10511 1.55 3
      vertex 5 1.15 3
    endloop
  endfacet
  facet normal 0 0 1
    outer loop
      vertex 8.89489 1.55 3
      vertex 9.78979 -2.19178e-016 3
      vertex 13 0 3
    endloop
  endfacet
  facet normal 0 0 1
    outer loop
      vertex 7.10511 1.55 3
      vertex -7.10511 1.55 3
      vertex 5 1.15 3
    endloop
  endfacet
  facet normal 0 0 1
    outer loop
      vertex 9.78979 -2.19178e-016 3
      vertex 8.89489 -1.55 3
      vertex 12.6194 -1.91342 3
    endloop
  endfacet
  facet normal 0 0 1
    outer loop
      vertex -5 3.15 3
      vertex 5 3.15 3
      vertex 5 3.85 3
    endloop
  endfacet
  facet normal 0 0 1
    outer loop
      vertex 5 1.85 3
      vertex -5 1.85 3
      vertex -7.10511 1.55 3
    endloop
  endfacet
  facet normal 0 0 1
    outer loop
      vertex 7.10511 -1.55 3
      vertex 5 -0.15 3
      vertex 5 -0.85 3
    endloop
  endfacet
  facet normal 0 0 1
    outer loop
      vertex -7.10511 -1.55 3
      vertex -8.89489 -1.55 3
      vertex -5 -5 3
    endloop
  endfacet
  facet normal 0 0 1
    outer loop
      vertex 5 3.85 3
      vertex 5 3.15 3
      vertex 11.5355 3.53553 3
    endloop
  endfacet
  facet normal 0 0 1
    outer loop
      vertex 12.6194 1.91342 3
      vertex 5 1.85 3
      vertex -7.10511 1.55 3
    endloop
  endfacet
  facet normal 0 0 1
    outer loop
      vertex 9.78979 -2.19178e-016 3
      vertex 12.6194 -1.91342 3
      vertex 13 0 3
    endloop
  endfacet
  facet normal 0 0 1
    outer loop
      vertex 12.6194 -1.91342 3
      vertex 7.10511 -1.55 3
      vertex 11.5355 -3.53553 3
    endloop
  endfacet
  facet normal 0 0 1
    outer loop
      vertex 8.89489 1.55 3
      vertex 13 0 3
      vertex 12.6194 1.91342 3
    endloop
  endfacet
  facet normal 0 0 1
    outer loop
      vertex 5 3.15 3
      vertex 12.6194 1.91342 3
      vertex 11.5355 3.53553 3
    endloop
  endfacet
  facet normal 0 0 1
    outer loop
      vertex 12.6194 1.91342 3
      vertex -7.10511 1.55 3
      vertex 7.10511 1.55 3
    endloop
  endfacet
  facet normal 0 0 1
    outer loop
      vertex 12.6194 1.91342 3
      vertex 7.10511 1.55 3
      vertex 8.89489 1.55 3
    endloop
  endfacet
  facet normal 0 0 1
    outer loop
      vertex 12.6194 -1.91342 3
      vertex 8.89489 -1.55 3
      vertex 7.10511 -1.55 3
    endloop
  endfacet
  facet normal 0 0 1
    outer loop
      vertex -7.10511 -1.55 3
      vertex -5 -5 3
      vertex -5 -4.85 3
    endloop
  endfacet
  facet normal 0 0 1
    outer loop
      vertex 5 5 3
      vertex 9.91342 4.6194 3
      vertex 8 5 3
    endloop
  endfacet
  facet normal 0 0 1
    outer loop
      vertex 5 5 3
      vertex 5 3.85 3
      vertex 9.91342 4.6194 3
    endloop
  endfacet
  facet normal 0 0 1
    outer loop
      vertex 5 -0.15 3
      vertex -5 -0.15 3
      vertex 5 -0.85 3
    endloop
  endfacet
  facet normal 0 0 1
    outer loop
      vertex 5 -2.15 3
      vertex -5 -2.15 3
      vertex 5 -2.85 3
    endloop
  endfacet
  facet normal 0 0 1
    outer loop
      vertex -5 1.85 3
      vertex -5 3.15 3
      vertex -12.6194 1.91342 3
    endloop
  endfacet
  facet normal 0 0 1
    outer loop
      vertex 7.10511 -1.55 3
      vertex 6.21021 2.19178e-016 3
      vertex 5 -0.15 3
    endloop
  endfacet
  facet normal 0 0 1
    outer loop
      vertex -9.78979 2.19178e-016 3
      vertex -8.89489 1.55 3
      vertex -12.6194 1.91342 3
    endloop
  endfacet
  facet normal 1 0 0
    outer loop
      vertex -5 -4.85 2.25
      vertex -5 -4.85 3
      vertex -5 -5 3
    endloop
  endfacet
  facet normal 1 0 0
    outer loop
      vertex -5 -5 2.25
      vertex -5 -4.85 2.25
      vertex -5 -5 3
    endloop
  endfacet
  facet normal 0 0 1
    outer loop
      vertex 5 -5 2.25
      vertex 5 -4.85 2.25
      vertex -5 -4.85 2.25
    endloop
  endfacet
  facet normal 0 0 1
    outer loop
      vertex -5 -5 2.25
      vertex 5 -5 2.25
      vertex -5 -4.85 2.25
    endloop
  endfacet
  facet normal -1 0 0
    outer loop
      vertex 5 -4.85 3
      vertex 5 -4.85 2.25
      vertex 5 -5 3
    endloop
  endfacet
  facet normal -1 0 0
    outer loop
      vertex 5 -5 3
      vertex 5 -4.85 2.25
      vertex 5 -5 2.25
    endloop
  endfacet
  facet normal -1 0 0
    outer loop
      vertex 5 5 3
      vertex 5 5 2.25
      vertex 5 3.85 3
    endloop
  endfacet
  facet normal -1 0 0
    outer loop
      vertex 5 3.85 3
      vertex 5 5 2.25
      vertex 5 3.85 2.25
    endloop
  endfacet
  facet normal 0 0 1
    outer loop
      vertex 5 3.85 2.25
      vertex 5 5 2.25
      vertex -5 5 2.25
    endloop
  endfacet
  facet normal 0 0 1
    outer loop
      vertex -5 3.85 2.25
      vertex 5 3.85 2.25
      vertex -5 5 2.25
    endloop
  endfacet
  facet normal 1 0 0
    outer loop
      vertex -5 5 2.25
      vertex -5 5 3
      vertex -5 3.85 3
    endloop
  endfacet
  facet normal 1 0 0
    outer loop
      vertex -5 3.85 2.25
      vertex -5 5 2.25
      vertex -5 3.85 3
    endloop
  endfacet
  facet normal 0 1 0
    outer loop
      vertex 5 3.85 3
      vertex 5 3.85 2.25
      vertex -5 3.85 3
    endloop
  endfacet
  facet normal 0 1 0
    outer loop
      vertex -5 3.85 3
      vertex 5 3.85 2.25
      vertex -5 3.85 2.25
    endloop
  endfacet
  facet normal 0 -1 0
    outer loop
      vertex 5 -4.85 2.25
      vertex 5 -4.85 3
      vertex -5 -4.85 3
    endloop
  endfacet
  facet normal 0 -1 0
    outer loop
      vertex -5 -4.85 2.25
      vertex 5 -4.85 2.25
      vertex -5 -4.85 3
    endloop
  endfacet
  facet normal 1 0 0
    outer loop
      vertex -5 -2.85 2.25
      vertex -5 -2.85 3
      vertex -5 -4.15 3
    endloop
  endfacet
  facet normal 1 0 0
    outer loop
      vertex -5 -4.15 2.25
      vertex -5 -2.85 2.25
      vertex -5 -4.15 3
    endloop
  endfacet
  facet normal 0 1 0
    outer loop
      vertex 5 -4.15 3
      vertex 5 -4.15 2.25
      vertex -5 -4.15 3
    endloop
  endfacet
  facet normal 0 1 0
    outer loop
      vertex -5 -4.15 3
      vertex 5 -4.15 2.25
      vertex -5 -4.15 2.25
    endloop
  endfacet
  facet normal -1 0 0
    outer loop
      vertex 5 -2.85 3
      vertex 5 -2.85 2.25
      vertex 5 -4.15 3
    endloop
  endfacet
  facet normal -1 0 0
    outer loop
      vertex 5 -4.15 3
      vertex 5 -2.85 2.25
      vertex 5 -4.15 2.25
    endloop
  endfacet
  facet normal 0 -1 0
    outer loop
      vertex 5 -2.85 2.25
      vertex 5 -2.85 3
      vertex -5 -2.85 3
    endloop
  endfacet
  facet normal 0 -1 0
    outer loop
      vertex -5 -2.85 2.25
      vertex 5 -2.85 2.25
      vertex -5 -2.85 3
    endloop
  endfacet
  facet normal 1 0 0
    outer loop
      vertex -5 -0.85 2.25
      vertex -5 -0.85 3
      vertex -5 -2.15 3
    endloop
  endfacet
  facet normal 1 0 0
    outer loop
      vertex -5 -2.15 2.25
      vertex -5 -0.85 2.25
      vertex -5 -2.15 3
    endloop
  endfacet
  facet normal 0 1 0
    outer loop
      vertex 5 -2.15 3
      vertex 5 -2.15 2.25
      vertex -5 -2.15 3
    endloop
  endfacet
  facet normal 0 1 0
    outer loop
      vertex -5 -2.15 3
      vertex 5 -2.15 2.25
      vertex -5 -2.15 2.25
    endloop
  endfacet
  facet normal -1 0 0
    outer loop
      vertex 5 -0.85 3
      vertex 5 -0.85 2.25
      vertex 5 -2.15 3
    endloop
  endfacet
  facet normal -1 0 0
    outer loop
      vertex 5 -2.15 3
      vertex 5 -0.85 2.25
      vertex 5 -2.15 2.25
    endloop
  endfacet
  facet normal 0 -1 0
    outer loop
      vertex 5 -0.85 2.25
      vertex 5 -0.85 3
      vertex -5 -0.85 3
    endloop
  endfacet
  facet normal 0 -1 0
    outer loop
      vertex -5 -0.85 2.25
      vertex 5 -0.85 2.25
      vertex -5 -0.85 3
    endloop
  endfacet
  facet normal 1 0 0
    outer loop
      vertex -5 1.15 2.25
      vertex -5 1.15 3
      vertex -5 -0.15 3
    endloop
  endfacet
  facet normal 1 0 0
    outer loop
      vertex -5 -0.15 2.25
      vertex -5 1.15 2.25
      vertex -5 -0.15 3
    endloop
  endfacet
  facet normal 0 1 0
    outer loop
      vertex 5 -0.15 3
      vertex 5 -0.15 2.25
      vertex -5 -0.15 3
    endloop
  endfacet
  facet normal 0 1 0
    outer loop
      vertex -5 -0.15 3
      vertex 5 -0.15 2.25
      vertex -5 -0.15 2.25
    endloop
  endfacet
  facet normal -1 0 0
    outer loop
      vertex 5 1.15 3
      vertex 5 1.15 2.25
      vertex 5 -0.15 3
    endloop
  endfacet
  facet normal -1 0 0
    outer loop
      vertex 5 -0.15 3
      vertex 5 1.15 2.25
      vertex 5 -0.15 2.25
    endloop
  endfacet
  facet normal 0 -1 0
    outer loop
      vertex 5 1.15 2.25
      vertex 5 1.15 3
      vertex -5 1.15 3
    endloop
  endfacet
  facet normal 0 -1 0
    outer loop
      vertex -5 1.15 2.25
      vertex 5 1.15 2.25
      vertex -5 1.15 3
    endloop
  endfacet
  facet normal 1 0 0
    outer loop
      vertex -5 3.15 2.25
      vertex -5 3.15 3
      vertex -5 1.85 3
    endloop
  endfacet
  facet normal 1 0 0
    outer loop
      vertex -5 1.85 2.25
      vertex -5 3.15 2.25
      vertex -5 1.85 3
    endloop
  endfacet
  facet normal 0 1 0
    outer loop
      vertex 5 1.85 3
      vertex 5 1.85 2.25
      vertex -5 1.85 3
    endloop
  endfacet
  facet normal 0 1 0
    outer loop
      vertex -5 1.85 3
      vertex 5 1.85 2.25
      vertex -5 1.85 2.25
    endloop
  endfacet
  facet normal -1 0 0
    outer loop
      vertex 5 3.15 3
      vertex 5 3.15 2.25
      vertex 5 1.85 3
    endloop
  endfacet
  facet normal -1 0 0
    outer loop
      vertex 5 1.85 3
      vertex 5 3.15 2.25
      vertex 5 1.85 2.25
    endloop
  endfacet
  facet normal 0 -1 0
    outer loop
      vertex 5 3.15 2.25
      vertex 5 3.15 3
      vertex -5 3.15 3
    endloop
  endfacet
  facet normal 0 -1 0
    outer loop
      vertex -5 3.15 2.25
      vertex 5 3.15 2.25
      vertex -5 3.15 3
    endloop
  endfacet
  facet normal 0 0 1
    outer loop
      vertex 5 -4.15 2.25
      vertex 5 -2.85 2.25
      vertex -5 -2.85 2.25
    endloop
  endfacet
  facet normal 0 0 1
    outer loop
      vertex -5 -4.15 2.25
      vertex 5 -4.15 2.25
      vertex -5 -2.85 2.25
    endloop
  endfacet
  facet normal 0 0 1
    outer loop
      vertex 5 -2.15 2.25
      vertex 5 -0.85 2.25
      vertex -5 -0.85 2.25
    endloop
  endfacet
  facet normal 0 0 1
    outer loop
      vertex -5 -2.15 2.25
      vertex 5 -2.15 2.25
      vertex -5 -0.85 2.25
    endloop
  endfacet
  facet normal 0 0 1
    outer loop
      vertex 5 -0.15 2.25
      vertex 5 1.15 2.25
      vertex -5 1.15 2.25
    endloop
  endfacet
  facet normal 0 0 1
    outer loop
      vertex -5 -0.15 2.25
      vertex 5 -0.15 2.25
      vertex -5 1.15 2.25
    endloop
  endfacet
  facet normal 0 0 1
    outer loop
      vertex 5 1.85 2.25
      vertex 5 3.15 2.25
      vertex -5 3.15 2.25
    endloop
  endfacet
  facet normal 0 0 1
    outer loop
      vertex -5 1.85 2.25
      vertex 5 1.85 2.25
      vertex -5 3.15 2.25
    endloop
  endfacet
endsolid OpenSCAD_Model
